<?xml version="1.0" encoding="UTF-8" standalone="no"?>
<!-- Created with Inkscape (http://www.inkscape.org/) -->

<svg
   width="316.33887mm"
   height="166.16663mm"
   viewBox="0 0 451.91267 237.38089"
   version="1.1"
   id="svg1"
   inkscape:version="1.3.2 (091e20e, 2023-11-25, custom)"
   sodipodi:docname="Bento UI or UX.svg"
   xmlns:inkscape="http://www.inkscape.org/namespaces/inkscape"
   xmlns:sodipodi="http://sodipodi.sourceforge.net/DTD/sodipodi-0.dtd"
   xmlns="http://www.w3.org/2000/svg"
   xmlns:svg="http://www.w3.org/2000/svg">
  <sodipodi:namedview
     id="namedview1"
     pagecolor="#ffffff"
     bordercolor="#000000"
     borderopacity="0.25"
     inkscape:showpageshadow="2"
     inkscape:pageopacity="0.0"
     inkscape:pagecheckerboard="0"
     inkscape:deskcolor="#d1d1d1"
     inkscape:document-units="cm"
     showguides="true"
     showgrid="true"
     inkscape:zoom="0.45254834"
     inkscape:cx="613.19416"
     inkscape:cy="445.2563"
     inkscape:window-width="1366"
     inkscape:window-height="697"
     inkscape:window-x="-8"
     inkscape:window-y="-8"
     inkscape:window-maximized="1"
     inkscape:current-layer="layer1">
    <inkscape:grid
       id="grid5"
       units="px"
       originx="203.09918"
       originy="105.83328"
       spacingx="2.6458333"
       spacingy="2.6458333"
       empcolor="#0099e5"
       empopacity="0.30196078"
       color="#0099e5"
       opacity="0.14901961"
       empspacing="5"
       dotted="false"
       gridanglex="30"
       gridanglez="30"
       visible="true"
       enabled="false" />
  </sodipodi:namedview>
  <defs
     id="defs1">
    <inkscape:path-effect
       effect="fillet_chamfer"
       id="path-effect9"
       is_visible="true"
       lpeversion="1"
       nodesatellites_param="F,0,0,1,0,1.5943575,0,1 @ F,0,0,1,0,1.9132401,0,1 @ F,0,0,1,0,1.5943608,0,1 @ F,0,0,1,0,1.5943607,0,1"
       radius="0"
       unit="px"
       method="auto"
       mode="F"
       chamfer_steps="1"
       flexible="false"
       use_knot_distance="true"
       apply_no_radius="true"
       apply_with_radius="true"
       only_selected="false"
       hide_knots="false" />
    <inkscape:path-effect
       effect="fillet_chamfer"
       id="path-effect8"
       is_visible="true"
       lpeversion="1"
       nodesatellites_param="F,0,0,1,0,1.9132299,0,1 @ F,0,0,1,0,1.5943592,0,1 @ F,0,0,1,0,1.5943606,0,1 @ F,0,0,1,0,1.5943607,0,1 @ F,0,0,1,0,1.5943579,0,1 @ F,0,0,1,0,1.5867599,0,1"
       radius="0"
       unit="px"
       method="auto"
       mode="F"
       chamfer_steps="1"
       flexible="false"
       use_knot_distance="true"
       apply_no_radius="true"
       apply_with_radius="true"
       only_selected="false"
       hide_knots="false" />
    <inkscape:path-effect
       effect="fillet_chamfer"
       id="path-effect7"
       is_visible="true"
       lpeversion="1"
       nodesatellites_param="F,0,0,1,0,1.5943659,0,1 @ F,0,0,1,0,1.5943639,0,1 @ F,0,0,1,0,1.680861,0,1 @ F,0,0,1,0,1.5943655,0,1 @ F,0,0,1,0,1.5943475,0,1 @ F,0,0,1,0,1.5943617,0,1"
       radius="0"
       unit="px"
       method="auto"
       mode="F"
       chamfer_steps="1"
       flexible="false"
       use_knot_distance="true"
       apply_no_radius="true"
       apply_with_radius="true"
       only_selected="false"
       hide_knots="false" />
    <inkscape:path-effect
       effect="fillet_chamfer"
       id="path-effect6"
       is_visible="true"
       lpeversion="1"
       nodesatellites_param="F,0,0,1,0,1.5943606,0,1 @ F,0,0,1,0,2.232109,0,1 @ F,0,0,1,0,1.5943575,0,1 @ F,0,0,1,0,1.5943591,0,1 @ F,0,0,1,0,2.5509813,0,1 @ F,0,0,1,0,1.594361,0,1"
       radius="0"
       unit="px"
       method="auto"
       mode="F"
       chamfer_steps="1"
       flexible="false"
       use_knot_distance="true"
       apply_no_radius="true"
       apply_with_radius="true"
       only_selected="false"
       hide_knots="false" />
    <inkscape:path-effect
       effect="fillet_chamfer"
       id="path-effect5"
       is_visible="true"
       lpeversion="1"
       nodesatellites_param="F,0,0,1,0,0,0,1 @ F,0,0,1,0,0,0,1 @ F,0,0,1,0,0,0,1 @ F,0,0,1,0,7.3237239,0,1 @ F,0,0,1,0,0,0,1 @ F,0,0,1,0,0,0,1"
       radius="0"
       unit="px"
       method="auto"
       mode="F"
       chamfer_steps="1"
       flexible="false"
       use_knot_distance="true"
       apply_no_radius="true"
       apply_with_radius="true"
       only_selected="false"
       hide_knots="false" />
  </defs>
  <g
     inkscape:label="Layer 1"
     inkscape:groupmode="layer"
     id="layer1"
     transform="matrix(8.2974691,0,0,8.2974691,-1907.0489,-1074.7993)"
     style="stroke-width:0.120519">
    <rect
       style="fill:#00ffff;fill-opacity:0.991667;fill-rule:evenodd;stroke:none;stroke-width:0.172169;stroke-linecap:round;stroke-miterlimit:3.9;paint-order:stroke markers fill"
       id="rect6"
       width="54.291748"
       height="28.436663"
       x="229.9211"
       y="129.61948"
       ry="7.1519899e-08"
       rx="7.1519892e-08"
       transform="translate(1.2351301e-6)" />
    <path
       style="fill:#f9f9f9;fill-opacity:0.991667;fill-rule:evenodd;stroke:none;stroke-width:0.17217;stroke-linecap:round;stroke-miterlimit:3.9;paint-order:stroke markers fill"
       d="m 231.99119,153.44881 v -20.08895 a 2.232109,2.232109 135 0 1 2.23211,-2.23211 h 12.11715 a 1.5943575,1.5943575 45 0 1 1.59436,1.59436 v 3.18872 a 1.5943591,1.5943591 135 0 1 -1.59436,1.59436 h -3.82647 a 2.5509813,2.5509813 135 0 0 -2.55098,2.55098 l 0,13.39264 a 1.594361,1.594361 135 0 1 -1.59436,1.59436 h -4.78309 a 1.5943606,1.5943606 45 0 1 -1.59436,-1.59436 z"
       id="path6"
       inkscape:path-effect="#path-effect6"
       inkscape:original-d="m 231.99119,155.04317 v -23.91542 h 15.94362 v 6.37744 H 239.963 v 17.53798 z"
       transform="translate(-2.4196775e-5,0.81994393)" />
    <path
       style="fill:#f9f9f9;fill-opacity:0.991667;fill-rule:evenodd;stroke:none;stroke-width:0.17217;stroke-linecap:round;stroke-miterlimit:3.9;paint-order:stroke markers fill"
       d="m 241.55736,140.69392 v 12.75489 c 0,0.88054 0.71382,1.59359 1.59436,1.59419 5.096,0.003 7.68497,0.0459 11.1741,0.0744 0.92816,0.008 1.67747,-0.74063 1.67361,-1.66894 l -0.0862,-20.72631 a 1.6010088,1.6010088 44.880881 0 0 -1.601,-1.59435 h -3.18873 a 1.5943475,1.5943475 135 0 0 -1.59435,1.59435 l 0,4.78309 a 1.5943597,1.5943597 135.00004 0 1 -1.59436,1.59436 l -4.78308,-1e-5 a 1.5943639,1.5943639 135.00004 0 0 -1.59437,1.59437 z"
       id="path7"
       inkscape:path-effect="#path-effect7"
       inkscape:original-d="m 241.55736,139.09955 v 15.94362 c 7.04816,-0.006 9.63271,0.0574 14.44906,0.0861 l -0.0998,-24.00151 h -6.37745 v 7.9718 z"
       sodipodi:nodetypes="ccccccc"
       transform="translate(-2.4196775e-5,0.81994393)" />
    <path
       style="fill:#f9f9f9;fill-opacity:0.991667;fill-rule:evenodd;stroke:none;stroke-width:0.17217;stroke-linecap:round;stroke-miterlimit:3.9;paint-order:stroke markers fill"
       d="m 257.50098,133.04098 v 20.40783 a 1.5943592,1.5943592 45 0 0 1.59436,1.59436 h 20.7267 a 1.5943606,1.5943606 135 0 0 1.59436,-1.59436 v -14.34926 a 1.5943607,1.5943607 45 0 0 -1.59436,-1.59436 h -3.18873 a 1.5963325,1.5963325 44.964542 0 1 -1.59633,-1.59436 l -0.004,-3.28235 a 1.5809474,1.5809474 44.823951 0 0 -1.5887,-1.57897 l -14.03002,0.0688 a 1.9226423,1.9226423 134.85941 0 0 -1.91321,1.92262 z"
       id="path8"
       inkscape:path-effect="#path-effect8"
       inkscape:original-d="m 257.50098,131.12775 v 23.91542 h 23.91542 v -17.53798 h -6.37745 l -0.008,-6.46347 z"
       transform="translate(-2.4196775e-5,0.81994393)" />
    <path
       style="fill:#f9f9f9;fill-opacity:0.991667;fill-rule:evenodd;stroke:none;stroke-width:0.17217;stroke-linecap:round;stroke-miterlimit:3.9;paint-order:stroke markers fill"
       d="m 276.63331,132.72211 0,1.27548 a 1.9132401,1.9132401 45 0 0 1.91324,1.91324 l 1.27549,0 a 1.5943608,1.5943608 135 0 0 1.59436,-1.59436 v -1.59436 a 1.5943607,1.5943607 45 0 0 -1.59436,-1.59436 h -1.59437 a 1.5943575,1.5943575 135 0 0 -1.59436,1.59436 z"
       id="path9"
       inkscape:path-effect="#path-effect9"
       inkscape:original-d="m 276.63331,131.12775 v 4.78308 h 4.78309 v -4.78308 z"
       transform="translate(-2.4196775e-5,0.81994393)" />
  </g>
</svg>
