<?xml version="1.0" encoding="UTF-8" standalone="no"?>
<!-- Created with Inkscape (http://www.inkscape.org/) -->

<svg
   width="420mm"
   height="297mm"
   viewBox="0 0 420 297"
   version="1.1"
   id="svg1"
   inkscape:version="1.3.2 (091e20e, 2023-11-25, custom)"
   sodipodi:docname="Cafe Bliss.svg"
   inkscape:export-filename="Cafe Bliss.png"
   inkscape:export-xdpi="96"
   inkscape:export-ydpi="96"
   xmlns:inkscape="http://www.inkscape.org/namespaces/inkscape"
   xmlns:sodipodi="http://sodipodi.sourceforge.net/DTD/sodipodi-0.dtd"
   xmlns:xlink="http://www.w3.org/1999/xlink"
   xmlns="http://www.w3.org/2000/svg"
   xmlns:svg="http://www.w3.org/2000/svg">
  <sodipodi:namedview
     id="namedview1"
     pagecolor="#ffffff"
     bordercolor="#000000"
     borderopacity="0.25"
     inkscape:showpageshadow="2"
     inkscape:pageopacity="0.0"
     inkscape:pagecheckerboard="0"
     inkscape:deskcolor="#d1d1d1"
     inkscape:document-units="mm"
     showguides="true"
     inkscape:zoom="0.25"
     inkscape:cx="706"
     inkscape:cy="666"
     inkscape:window-width="1366"
     inkscape:window-height="745"
     inkscape:window-x="-8"
     inkscape:window-y="-8"
     inkscape:window-maximized="1"
     inkscape:current-layer="layer1" />
  <defs
     id="defs1">
    <inkscape:path-effect
       effect="fillet_chamfer"
       id="path-effect81"
       is_visible="true"
       lpeversion="1"
       nodesatellites_param="F,0,0,1,0,0,0,1 @ F,0,0,1,0,0,0,1 @ F,0,0,1,0,0,0,1 @ F,0,0,1,0,0,0,1 @ F,0,0,1,0,0,0,1 @ F,0,0,1,0,0,0,1"
       radius="0"
       unit="px"
       method="auto"
       mode="F"
       chamfer_steps="1"
       flexible="false"
       use_knot_distance="true"
       apply_no_radius="true"
       apply_with_radius="true"
       only_selected="false"
       hide_knots="false" />
    <inkscape:path-effect
       effect="fillet_chamfer"
       id="path-effect77"
       is_visible="true"
       lpeversion="1"
       nodesatellites_param="F,0,0,1,0,0,0,1 @ F,0,0,1,0,7.2443789,0,1 @ F,0,0,1,0,2.6918347,0,1 @ F,0,0,1,0,0,0,1 @ F,0,0,1,0,1.9494679,0,1 @ F,0,0,1,0,3.6494131,0,1"
       radius="0"
       unit="px"
       method="auto"
       mode="F"
       chamfer_steps="1"
       flexible="false"
       use_knot_distance="true"
       apply_no_radius="true"
       apply_with_radius="true"
       only_selected="false"
       hide_knots="false" />
    <inkscape:path-effect
       effect="fillet_chamfer"
       id="path-effect76"
       is_visible="true"
       lpeversion="1"
       nodesatellites_param="F,0,0,1,0,10.068606,0,1 @ F,0,0,1,0,5.6147574,0,1 @ F,0,0,1,0,4.6475397,0,1 @ F,0,0,1,0,0,0,1 @ F,0,0,1,0,2.8132325,0,1 @ F,0,0,1,0,21.017555,0,1 @ F,0,0,1,0,0,0,1"
       radius="0"
       unit="px"
       method="auto"
       mode="F"
       chamfer_steps="1"
       flexible="false"
       use_knot_distance="true"
       apply_no_radius="true"
       apply_with_radius="true"
       only_selected="false"
       hide_knots="false" />
    <inkscape:path-effect
       effect="fillet_chamfer"
       id="path-effect74"
       is_visible="true"
       lpeversion="1"
       nodesatellites_param="F,0,0,1,0,0,0,1 @ F,0,0,1,0,5.0937,0,1 @ F,0,0,1,0,0,0,1 @ F,0,1,1,0,0.2474858,0,1 @ F,0,0,1,0,0.2474858,0,1"
       radius="0"
       unit="px"
       method="auto"
       mode="F"
       chamfer_steps="1"
       flexible="false"
       use_knot_distance="true"
       apply_no_radius="true"
       apply_with_radius="true"
       only_selected="false"
       hide_knots="false" />
    <inkscape:path-effect
       effect="fillet_chamfer"
       id="path-effect72"
       is_visible="true"
       lpeversion="1"
       nodesatellites_param="F,0,0,1,0,0,0,1 @ F,0,0,1,0,5.0937,0,1 @ F,0,0,1,0,0,0,1 @ F,0,0,1,0,0.67282422,0,1 @ F,0,0,1,0,1.2707378,0,1"
       radius="0"
       unit="px"
       method="auto"
       mode="F"
       chamfer_steps="1"
       flexible="false"
       use_knot_distance="true"
       apply_no_radius="true"
       apply_with_radius="true"
       only_selected="false"
       hide_knots="false" />
    <inkscape:path-effect
       effect="fillet_chamfer"
       id="path-effect69"
       is_visible="true"
       lpeversion="1"
       nodesatellites_param="F,0,0,1,0,0,0,1 @ F,0,0,1,0,5.0937,0,1 @ F,0,0,1,0,0,0,1 @ F,0,1,1,0,0.2474858,0,1 @ F,0,0,1,0,0.2474858,0,1"
       radius="0"
       unit="px"
       method="auto"
       mode="F"
       chamfer_steps="1"
       flexible="false"
       use_knot_distance="true"
       apply_no_radius="true"
       apply_with_radius="true"
       only_selected="false"
       hide_knots="false" />
    <inkscape:path-effect
       effect="fillet_chamfer"
       id="path-effect67"
       is_visible="true"
       lpeversion="1"
       nodesatellites_param="F,0,0,1,0,0,0,1 @ F,0,0,1,0,5.0937,0,1 @ F,0,0,1,0,0,0,1 @ F,0,0,1,0,0.67282422,0,1 @ F,0,0,1,0,1.2707378,0,1"
       radius="0"
       unit="px"
       method="auto"
       mode="F"
       chamfer_steps="1"
       flexible="false"
       use_knot_distance="true"
       apply_no_radius="true"
       apply_with_radius="true"
       only_selected="false"
       hide_knots="false" />
    <inkscape:path-effect
       effect="fillet_chamfer"
       id="path-effect64"
       is_visible="true"
       lpeversion="1"
       nodesatellites_param="F,0,0,1,0,0,0,1 @ F,0,0,1,0,5.0937,0,1 @ F,0,0,1,0,0,0,1 @ F,0,1,1,0,0.2474858,0,1 @ F,0,0,1,0,0.2474858,0,1"
       radius="0"
       unit="px"
       method="auto"
       mode="F"
       chamfer_steps="1"
       flexible="false"
       use_knot_distance="true"
       apply_no_radius="true"
       apply_with_radius="true"
       only_selected="false"
       hide_knots="false" />
    <inkscape:path-effect
       effect="fillet_chamfer"
       id="path-effect62"
       is_visible="true"
       lpeversion="1"
       nodesatellites_param="F,0,0,1,0,0,0,1 @ F,0,0,1,0,5.0937,0,1 @ F,0,0,1,0,0,0,1 @ F,0,0,1,0,0.67282422,0,1 @ F,0,0,1,0,1.2707378,0,1"
       radius="0"
       unit="px"
       method="auto"
       mode="F"
       chamfer_steps="1"
       flexible="false"
       use_knot_distance="true"
       apply_no_radius="true"
       apply_with_radius="true"
       only_selected="false"
       hide_knots="false" />
    <inkscape:path-effect
       effect="fillet_chamfer"
       id="path-effect59"
       is_visible="true"
       lpeversion="1"
       nodesatellites_param="F,0,0,1,0,0,0,1 @ F,0,0,1,0,5.0937,0,1 @ F,0,0,1,0,0,0,1 @ F,0,1,1,0,0.2474858,0,1 @ F,0,0,1,0,0.2474858,0,1"
       radius="0"
       unit="px"
       method="auto"
       mode="F"
       chamfer_steps="1"
       flexible="false"
       use_knot_distance="true"
       apply_no_radius="true"
       apply_with_radius="true"
       only_selected="false"
       hide_knots="false" />
    <inkscape:path-effect
       effect="fillet_chamfer"
       id="path-effect57"
       is_visible="true"
       lpeversion="1"
       nodesatellites_param="F,0,0,1,0,0,0,1 @ F,0,0,1,0,5.0937,0,1 @ F,0,0,1,0,0,0,1 @ F,0,0,1,0,0.67282422,0,1 @ F,0,0,1,0,1.2707378,0,1"
       radius="0"
       unit="px"
       method="auto"
       mode="F"
       chamfer_steps="1"
       flexible="false"
       use_knot_distance="true"
       apply_no_radius="true"
       apply_with_radius="true"
       only_selected="false"
       hide_knots="false" />
    <inkscape:path-effect
       effect="fillet_chamfer"
       id="path-effect55"
       is_visible="true"
       lpeversion="1"
       nodesatellites_param="F,0,0,1,0,0,0,1 @ F,0,0,1,0,5.0937,0,1 @ F,0,0,1,0,0,0,1 @ F,0,1,1,0,0.2474858,0,1 @ F,0,0,1,0,0.2474858,0,1"
       radius="0"
       unit="px"
       method="auto"
       mode="F"
       chamfer_steps="1"
       flexible="false"
       use_knot_distance="true"
       apply_no_radius="true"
       apply_with_radius="true"
       only_selected="false"
       hide_knots="false" />
    <inkscape:path-effect
       effect="fillet_chamfer"
       id="path-effect53"
       is_visible="true"
       lpeversion="1"
       nodesatellites_param="F,0,0,1,0,0,0,1 @ F,0,0,1,0,5.0937,0,1 @ F,0,0,1,0,0,0,1 @ F,0,0,1,0,0.67282422,0,1 @ F,0,0,1,0,1.2707378,0,1"
       radius="0"
       unit="px"
       method="auto"
       mode="F"
       chamfer_steps="1"
       flexible="false"
       use_knot_distance="true"
       apply_no_radius="true"
       apply_with_radius="true"
       only_selected="false"
       hide_knots="false" />
    <inkscape:path-effect
       effect="fillet_chamfer"
       id="path-effect51"
       is_visible="true"
       lpeversion="1"
       nodesatellites_param="F,0,0,1,0,0,0,1 @ F,0,0,1,0,5.0937,0,1 @ F,0,0,1,0,0,0,1 @ F,0,1,1,0,0.2474858,0,1 @ F,0,0,1,0,0.2474858,0,1"
       radius="0"
       unit="px"
       method="auto"
       mode="F"
       chamfer_steps="1"
       flexible="false"
       use_knot_distance="true"
       apply_no_radius="true"
       apply_with_radius="true"
       only_selected="false"
       hide_knots="false" />
    <inkscape:path-effect
       effect="fillet_chamfer"
       id="path-effect49"
       is_visible="true"
       lpeversion="1"
       nodesatellites_param="F,0,0,1,0,0,0,1 @ F,0,0,1,0,5.0937,0,1 @ F,0,0,1,0,0,0,1 @ F,0,0,1,0,0.67282422,0,1 @ F,0,0,1,0,1.2707378,0,1"
       radius="0"
       unit="px"
       method="auto"
       mode="F"
       chamfer_steps="1"
       flexible="false"
       use_knot_distance="true"
       apply_no_radius="true"
       apply_with_radius="true"
       only_selected="false"
       hide_knots="false" />
    <inkscape:path-effect
       effect="fillet_chamfer"
       id="path-effect40"
       is_visible="true"
       lpeversion="1"
       nodesatellites_param="F,0,0,1,0,0,0,1 @ F,0,0,1,0,5.0937,0,1 @ F,0,0,1,0,0,0,1 @ F,0,1,1,0,0.2474858,0,1 @ F,0,0,1,0,0.2474858,0,1"
       radius="0"
       unit="px"
       method="auto"
       mode="F"
       chamfer_steps="1"
       flexible="false"
       use_knot_distance="true"
       apply_no_radius="true"
       apply_with_radius="true"
       only_selected="false"
       hide_knots="false" />
    <inkscape:path-effect
       effect="fillet_chamfer"
       id="path-effect38"
       is_visible="true"
       lpeversion="1"
       nodesatellites_param="F,0,0,1,0,0,0,1 @ F,0,0,1,0,5.0937,0,1 @ F,0,0,1,0,0,0,1 @ F,0,0,1,0,0.67282422,0,1 @ F,0,0,1,0,1.2707378,0,1"
       radius="0"
       unit="px"
       method="auto"
       mode="F"
       chamfer_steps="1"
       flexible="false"
       use_knot_distance="true"
       apply_no_radius="true"
       apply_with_radius="true"
       only_selected="false"
       hide_knots="false" />
    <inkscape:path-effect
       effect="fillet_chamfer"
       id="path-effect36"
       is_visible="true"
       lpeversion="1"
       nodesatellites_param="F,0,0,1,0,0,0,1 @ F,0,0,1,0,5.0937,0,1 @ F,0,0,1,0,0,0,1 @ F,0,1,1,0,0.2474858,0,1 @ F,0,0,1,0,0.2474858,0,1"
       radius="0"
       unit="px"
       method="auto"
       mode="F"
       chamfer_steps="1"
       flexible="false"
       use_knot_distance="true"
       apply_no_radius="true"
       apply_with_radius="true"
       only_selected="false"
       hide_knots="false" />
    <inkscape:path-effect
       effect="fillet_chamfer"
       id="path-effect34"
       is_visible="true"
       lpeversion="1"
       nodesatellites_param="F,0,0,1,0,0,0,1 @ F,0,0,1,0,5.0937,0,1 @ F,0,0,1,0,0,0,1 @ F,0,0,1,0,0.67282422,0,1 @ F,0,0,1,0,1.2707378,0,1"
       radius="0"
       unit="px"
       method="auto"
       mode="F"
       chamfer_steps="1"
       flexible="false"
       use_knot_distance="true"
       apply_no_radius="true"
       apply_with_radius="true"
       only_selected="false"
       hide_knots="false" />
    <inkscape:path-effect
       effect="fillet_chamfer"
       id="path-effect32"
       is_visible="true"
       lpeversion="1"
       nodesatellites_param="F,0,0,1,0,0,0,1 @ F,0,0,1,0,5.0937,0,1 @ F,0,0,1,0,0,0,1 @ F,0,1,1,0,0.2474858,0,1 @ F,0,0,1,0,0.2474858,0,1"
       radius="0"
       unit="px"
       method="auto"
       mode="F"
       chamfer_steps="1"
       flexible="false"
       use_knot_distance="true"
       apply_no_radius="true"
       apply_with_radius="true"
       only_selected="false"
       hide_knots="false" />
    <inkscape:path-effect
       effect="fillet_chamfer"
       id="path-effect30"
       is_visible="true"
       lpeversion="1"
       nodesatellites_param="F,0,0,1,0,0,0,1 @ F,0,0,1,0,5.0937,0,1 @ F,0,0,1,0,0,0,1 @ F,0,0,1,0,0.67282422,0,1 @ F,0,0,1,0,1.2707378,0,1"
       radius="0"
       unit="px"
       method="auto"
       mode="F"
       chamfer_steps="1"
       flexible="false"
       use_knot_distance="true"
       apply_no_radius="true"
       apply_with_radius="true"
       only_selected="false"
       hide_knots="false" />
    <inkscape:path-effect
       effect="fillet_chamfer"
       id="path-effect21"
       is_visible="true"
       lpeversion="1"
       nodesatellites_param="F,0,0,1,0,0,0,1 @ F,0,0,1,0,5.0937,0,1 @ F,0,0,1,0,0,0,1 @ F,0,1,1,0,0.2474858,0,1 @ F,0,0,1,0,0.2474858,0,1"
       radius="0"
       unit="px"
       method="auto"
       mode="F"
       chamfer_steps="1"
       flexible="false"
       use_knot_distance="true"
       apply_no_radius="true"
       apply_with_radius="true"
       only_selected="false"
       hide_knots="false" />
    <inkscape:path-effect
       effect="fillet_chamfer"
       id="path-effect19"
       is_visible="true"
       lpeversion="1"
       nodesatellites_param="F,0,0,1,0,0,0,1 @ F,0,0,1,0,5.0937,0,1 @ F,0,0,1,0,0,0,1 @ F,0,0,1,0,0.67282422,0,1 @ F,0,0,1,0,1.2707378,0,1"
       radius="0"
       unit="px"
       method="auto"
       mode="F"
       chamfer_steps="1"
       flexible="false"
       use_knot_distance="true"
       apply_no_radius="true"
       apply_with_radius="true"
       only_selected="false"
       hide_knots="false" />
    <inkscape:path-effect
       effect="fillet_chamfer"
       id="path-effect16"
       is_visible="true"
       lpeversion="1"
       nodesatellites_param="F,0,0,1,0,0,0,1 @ F,0,0,1,0,5.0937,0,1 @ F,0,0,1,0,0,0,1 @ F,0,1,1,0,0.2474858,0,1 @ F,0,0,1,0,0.2474858,0,1"
       radius="0"
       unit="px"
       method="auto"
       mode="F"
       chamfer_steps="1"
       flexible="false"
       use_knot_distance="true"
       apply_no_radius="true"
       apply_with_radius="true"
       only_selected="false"
       hide_knots="false" />
    <inkscape:path-effect
       effect="fillet_chamfer"
       id="path-effect14"
       is_visible="true"
       lpeversion="1"
       nodesatellites_param="F,0,0,1,0,0,0,1 @ F,0,0,1,0,5.0937,0,1 @ F,0,0,1,0,0,0,1 @ F,0,0,1,0,0.67282422,0,1 @ F,0,0,1,0,1.2707378,0,1"
       radius="0"
       unit="px"
       method="auto"
       mode="F"
       chamfer_steps="1"
       flexible="false"
       use_knot_distance="true"
       apply_no_radius="true"
       apply_with_radius="true"
       only_selected="false"
       hide_knots="false" />
    <inkscape:path-effect
       effect="fillet_chamfer"
       id="path-effect10"
       is_visible="true"
       lpeversion="1"
       nodesatellites_param="F,0,0,1,0,0,0,1 @ F,0,0,1,0,5.0937,0,1 @ F,0,0,1,0,0,0,1 @ F,0,1,1,0,0.2474858,0,1 @ F,0,0,1,0,0.2474858,0,1"
       radius="0"
       unit="px"
       method="auto"
       mode="F"
       chamfer_steps="1"
       flexible="false"
       use_knot_distance="true"
       apply_no_radius="true"
       apply_with_radius="true"
       only_selected="false"
       hide_knots="false" />
    <inkscape:path-effect
       effect="fillet_chamfer"
       id="path-effect8"
       is_visible="true"
       lpeversion="1"
       nodesatellites_param="F,0,0,1,0,0,0,1 @ F,0,0,1,0,5.0937,0,1 @ F,0,0,1,0,0,0,1 @ F,0,0,1,0,0.67282422,0,1 @ F,0,0,1,0,1.2707378,0,1"
       radius="0"
       unit="px"
       method="auto"
       mode="F"
       chamfer_steps="1"
       flexible="false"
       use_knot_distance="true"
       apply_no_radius="true"
       apply_with_radius="true"
       only_selected="false"
       hide_knots="false" />
    <inkscape:path-effect
       effect="fillet_chamfer"
       id="path-effect7"
       is_visible="true"
       lpeversion="1"
       nodesatellites_param="F,0,0,1,0,0,0,1 @ F,0,0,1,0,6.1379252,0,1 @ F,0,0,1,0,8.1048859,0,1 @ F,0,0,1,0,0,0,1 @ F,0,0,1,0,7.6769918,0,1 @ F,0,0,1,0,11.919124,0,1 @ F,0,0,1,0,2.2304565,0,1"
       radius="0"
       unit="px"
       method="auto"
       mode="F"
       chamfer_steps="1"
       flexible="false"
       use_knot_distance="true"
       apply_no_radius="true"
       apply_with_radius="true"
       only_selected="false"
       hide_knots="false" />
    <inkscape:path-effect
       effect="fillet_chamfer"
       id="path-effect5"
       is_visible="true"
       lpeversion="1"
       nodesatellites_param="F,0,0,1,0,0,0,1 @ F,0,0,1,0,7.5904196,0,1 @ F,0,0,1,0,7.1710154,0,1 @ F,0,0,1,0,0,0,1 @ F,0,0,1,0,7.1145331,0,1 @ F,0,0,1,0,2.4912468,0,1"
       radius="0"
       unit="px"
       method="auto"
       mode="F"
       chamfer_steps="1"
       flexible="false"
       use_knot_distance="true"
       apply_no_radius="true"
       apply_with_radius="true"
       only_selected="false"
       hide_knots="false" />
    <inkscape:path-effect
       effect="fillet_chamfer"
       id="path-effect4"
       is_visible="true"
       lpeversion="1"
       nodesatellites_param="F,0,0,1,0,0,0,1 @ F,0,0,1,0,6.1379252,0,1 @ F,0,0,1,0,8.1048859,0,1 @ F,0,0,1,0,0,0,1 @ F,0,0,1,0,7.6769918,0,1 @ F,0,0,1,0,11.919124,0,1 @ F,0,0,1,0,2.2304565,0,1"
       radius="0"
       unit="px"
       method="auto"
       mode="F"
       chamfer_steps="1"
       flexible="false"
       use_knot_distance="true"
       apply_no_radius="true"
       apply_with_radius="true"
       only_selected="false"
       hide_knots="false" />
    <inkscape:path-effect
       effect="fillet_chamfer"
       id="path-effect1"
       is_visible="true"
       lpeversion="1"
       nodesatellites_param="F,0,0,1,0,0,0,1 @ F,0,0,1,0,0,0,1 @ F,0,0,1,0,0,0,1 @ F,0,0,1,0,0,0,1 @ F,0,0,1,0,8.3273222,0,1 @ F,0,0,1,0,8.4422129,0,1 @ F,0,0,1,0,0,0,1"
       radius="0"
       unit="px"
       method="auto"
       mode="F"
       chamfer_steps="1"
       flexible="false"
       use_knot_distance="true"
       apply_no_radius="true"
       apply_with_radius="true"
       only_selected="false"
       hide_knots="false" />
  </defs>
  <g
     inkscape:label="Layer 1"
     inkscape:groupmode="layer"
     id="layer1"
     transform="translate(243.02617,-34.128458)">
    <path
       id="path2"
       style="fill:#501616;fill-opacity:1;fill-rule:evenodd;stroke-width:1.1;stroke-linecap:square;stroke-miterlimit:3.9;paint-order:stroke markers fill"
       d="m 20.348043,152.84255 a 25.190021,33.586694 79.713506 0 0 -8.522552,2.45296 22.323496,33.586694 79.713506 0 1 37.00401,15.97165 22.323496,33.586694 79.713506 0 1 -29.060495,27.96217 22.323496,33.586694 79.713506 0 1 -14.5522169,0.4022 25.190021,33.586694 79.713506 0 0 24.1275629,2.78117 25.190021,33.586694 79.713506 0 0 28.548687,-30.7824 25.190021,33.586694 79.713506 0 0 -37.544996,-18.78775 z" />
    <path
       id="path3"
       style="fill:#501616;fill-opacity:1;fill-rule:evenodd;stroke-width:1.1;stroke-linecap:square;stroke-miterlimit:3.9;paint-order:stroke markers fill"
       d="m 8.0936726,149.14685 a 48.785213,26.816943 0 0 1 -41.1197096,12.47956 48.785213,26.816943 0 0 1 -41.115328,-12.47552 48.785217,43.540527 0 0 0 -7.669752,23.41906 48.785217,43.540527 0 0 0 48.78508,43.54012 48.785217,43.540527 0 0 0 48.784814,-43.54012 48.785217,43.540527 0 0 0 -7.6651044,-23.4231 z" />
    <path
       style="fill:#cccccc;fill-opacity:1;fill-rule:evenodd;stroke-width:0.986244;stroke-linecap:square;stroke-miterlimit:3.9;paint-order:stroke markers fill"
       d="m 86.008362,130.42201 3.816612,-6.0338 a 11.401897,11.401897 94.020247 0 0 0.757819,-10.78255 l -3.747546,-8.30978 a 18.008211,18.008211 89.956457 0 1 -0.01123,-14.781666 l 7.743434,-17.240099 -4.340559,16.783491 a 22.707487,22.707487 85.820701 0 0 1.060024,14.506534 l 1.364276,3.23619 a 18.981053,18.981053 99.267939 0 1 -3.251308,19.92446 12.513556,12.513556 141.50538 0 1 -3.391519,2.69722 z"
       id="path4"
       inkscape:path-effect="#path-effect4"
       inkscape:original-d="m 86.008362,130.42201 7.097779,-11.2211 -9.602875,-21.293333 11.064182,-24.633462 -6.262746,24.215947 8.976601,21.293328 -9.315833,10.56873 z"
       sodipodi:nodetypes="cccccccc"
       transform="matrix(1.1153434,0,0,1.1153434,-147.11062,-16.975538)" />
    <path
       style="fill:#cccccc;fill-opacity:1;fill-rule:evenodd;stroke-width:0.986244;stroke-linecap:square;stroke-miterlimit:3.9;paint-order:stroke markers fill"
       d="m 106.46666,127.96875 -3.34335,-8.02404 a 15.785947,15.785947 93.059969 0 1 0.73033,-13.66191 15.514449,15.514449 93.932697 0 0 0.89288,-12.987976 l -2.46026,-6.451429 5.47452,8.937759 a 12.218564,12.218564 88.722922 0 1 0.27406,12.293386 l -1.82957,3.30962 a 7.9622727,7.9622727 101.56006 0 0 -0.95291,4.65871 z"
       id="path5"
       inkscape:path-effect="#path-effect5"
       inkscape:original-d="m 106.46666,127.96875 -6.26274,-15.03058 7.09778,-12.943009 -5.01544,-13.151766 9.1906,15.004665 L 105,113.56444 Z"
       transform="matrix(1.1153434,0,0,1.1153434,-147.11062,-16.975538)" />
    <path
       style="fill:#cccccc;fill-opacity:1;fill-rule:evenodd;stroke-width:0.942499;stroke-linecap:square;stroke-miterlimit:3.9;paint-order:stroke markers fill"
       d="m 86.008362,130.42201 3.816612,-6.0338 a 11.401897,11.401897 94.020247 0 0 0.757819,-10.78255 l -3.747546,-8.30978 a 18.008211,18.008211 89.956457 0 1 -0.01123,-14.781666 l 7.743434,-17.240099 -4.340559,16.783491 a 22.707487,22.707487 85.820701 0 0 1.060024,14.506534 l 1.364276,3.23619 a 18.981053,18.981053 99.267939 0 1 -3.251308,19.92446 12.513556,12.513556 141.50538 0 1 -3.391519,2.69722 z"
       id="path6"
       inkscape:path-effect="#path-effect7"
       inkscape:original-d="m 86.008362,130.42201 7.097779,-11.2211 -9.602875,-21.293333 11.064182,-24.633462 -6.262746,24.215947 8.976601,21.293328 -9.315833,10.56873 z"
       sodipodi:nodetypes="cccccccc"
       transform="matrix(-1.1153434,0,0,1.221275,88.749525,-27.764479)" />
    <path
       style="fill:#9b3e00;fill-opacity:1;fill-rule:evenodd;stroke-width:1.1;stroke-linecap:square;stroke-miterlimit:3.9;paint-order:stroke markers fill"
       d="m -79.49844,210.41399 -0.289008,-0.4307 6.015286,1.48494 10.176468,4.10847 1.140804,0.80974 -8.884195,-0.77404 z"
       id="path10"
       sodipodi:nodetypes="ccccccc" />
    <path
       style="fill:#803300;fill-opacity:1;fill-rule:evenodd;stroke-width:0.636401;stroke-linecap:square;stroke-miterlimit:3.9;paint-order:stroke markers fill"
       d="m 106.98856,212.82895 c -0.12067,0 -0.69469,-0.17437 -1.44995,-0.42232 -2.67232,-0.87732 -4.8128,-3.94579 -4.8128,-6.75896 l 0,-1.48219 1.60298,2.512 a 10.383187,10.383187 61.164342 0 1 0.64765,1.17633 l 0.36796,0.7845 a 7.0369979,7.0369979 54.635757 0 0 1.44752,2.03956 z"
       id="path7"
       sodipodi:nodetypes="cccccc"
       transform="matrix(1.4353017,-0.96308128,0.96308128,1.4353017,-420.98808,13.951428)"
       inkscape:original-d="m 106.98856,212.82895 c -0.41752,0 -6.26275,-2.08758 -6.26275,-2.08758 v -6.57589 l 1.96492,3.07918 1.19328,2.54413 z"
       inkscape:path-effect="#path-effect8" />
    <path
       id="path8"
       style="fill:#803300;fill-opacity:1;fill-rule:evenodd;stroke:none;stroke-width:0.636401;stroke-linecap:square;stroke-miterlimit:3.9;paint-order:stroke markers fill"
       transform="matrix(0.46444695,1.6649041,1.6649041,-0.46444695,-466.48592,137.10851)"
       d="m 106.98856,212.82895 c -0.12067,0 -0.69469,-0.17437 -1.44995,-0.42232 -2.67232,-0.87732 -4.8128,-3.94579 -4.8128,-6.75896 l 0,-1.48219 1.8728,2.71025 a 1.7055666,1.7055666 47.099092 0 0 0.33345,0.35883 l 0.73023,0.58802 a 1.5367329,1.5367329 47.991571 0 1 0.32704,0.36311 z"
       inkscape:original-d="m 106.98856,212.82895 c -0.41752,0 -6.26275,-2.08758 -6.26275,-2.08758 v -6.57589 l 2.01349,2.91386 1.11575,0.89846 z"
       inkscape:path-effect="#path-effect10" />
    <path
       style="fill:#9b3e00;fill-opacity:1;fill-rule:evenodd;stroke-width:1.1;stroke-linecap:square;stroke-miterlimit:3.9;paint-order:stroke markers fill"
       d="m -50.305717,216.2628 0.503739,0.12362 -5.445965,2.9547 -10.288642,3.81889 -1.388586,0.17006 7.087356,-5.41272 z"
       id="path11"
       sodipodi:nodetypes="ccccccc" />
    <path
       style="fill:#803300;fill-opacity:1;fill-rule:evenodd;stroke-width:0.636401;stroke-linecap:square;stroke-miterlimit:3.9;paint-order:stroke markers fill"
       d="m 106.98856,212.82895 c -0.12067,0 -0.69469,-0.17437 -1.44995,-0.42232 -2.67232,-0.87732 -4.8128,-3.94579 -4.8128,-6.75896 l 0,-1.48219 1.60298,2.512 a 10.383187,10.383187 61.164342 0 1 0.64765,1.17633 l 0.36796,0.7845 a 7.0369979,7.0369979 54.635757 0 0 1.44752,2.03956 z"
       id="path12"
       sodipodi:nodetypes="cccccc"
       transform="matrix(-0.41199897,1.6786523,-1.6786523,-0.41199897,334.41905,131.41882)"
       inkscape:original-d="m 106.98856,212.82895 c -0.41752,0 -6.26275,-2.08758 -6.26275,-2.08758 v -6.57589 l 1.96492,3.07918 1.19328,2.54413 z"
       inkscape:path-effect="#path-effect14" />
    <path
       id="path13"
       style="fill:#803300;fill-opacity:1;fill-rule:evenodd;stroke:none;stroke-width:0.636401;stroke-linecap:square;stroke-miterlimit:3.9;paint-order:stroke markers fill"
       transform="matrix(-1.4648024,-0.91758942,-0.91758942,1.4648024,285.08078,9.749345)"
       d="m 106.98856,212.82895 c -0.12067,0 -0.69469,-0.17437 -1.44995,-0.42232 -2.67232,-0.87732 -4.8128,-3.94579 -4.8128,-6.75896 l 0,-1.48219 1.8728,2.71025 a 1.7055666,1.7055666 47.099092 0 0 0.33345,0.35883 l 0.73023,0.58802 a 1.5367329,1.5367329 47.991571 0 1 0.32704,0.36311 z"
       inkscape:original-d="m 106.98856,212.82895 c -0.41752,0 -6.26275,-2.08758 -6.26275,-2.08758 v -6.57589 l 2.01349,2.91386 1.11575,0.89846 z"
       inkscape:path-effect="#path-effect16" />
    <path
       style="fill:#9b3e00;fill-opacity:1;fill-rule:evenodd;stroke-width:1.1;stroke-linecap:square;stroke-miterlimit:3.9;paint-order:stroke markers fill"
       d="m -68.269364,218.51016 0.296096,0.0728 -3.201112,1.73674 -6.047612,2.24473 -0.816205,0.0999 4.165913,-3.18158 z"
       id="path16"
       sodipodi:nodetypes="ccccccc" />
    <path
       style="fill:#803300;fill-opacity:1;fill-rule:evenodd;stroke-width:1.08269;stroke-linecap:square;stroke-miterlimit:3.9;paint-order:stroke markers fill"
       d="m 106.98856,212.82895 c -0.12067,0 -0.69469,-0.17437 -1.44995,-0.42232 -2.67232,-0.87732 -4.8128,-3.94579 -4.8128,-6.75896 l 0,-1.48219 1.60298,2.512 a 10.383187,10.383187 61.164342 0 1 0.64765,1.17633 l 0.36796,0.7845 a 7.0369979,7.0369979 54.635757 0 0 1.44752,2.03956 z"
       id="path17"
       sodipodi:nodetypes="cccccc"
       transform="matrix(-0.24217092,0.98670329,-0.98670329,-0.24217092,157.86962,168.63928)"
       inkscape:original-d="m 106.98856,212.82895 c -0.41752,0 -6.26275,-2.08758 -6.26275,-2.08758 v -6.57589 l 1.96492,3.07918 1.19328,2.54413 z"
       inkscape:path-effect="#path-effect19" />
    <path
       id="path18"
       style="fill:#803300;fill-opacity:1;fill-rule:evenodd;stroke:none;stroke-width:1.08269;stroke-linecap:square;stroke-miterlimit:3.9;paint-order:stroke markers fill"
       transform="matrix(-0.8610035,-0.53935443,-0.53935443,0.8610035,128.86881,97.122609)"
       d="m 106.98856,212.82895 c -0.12067,0 -0.69469,-0.17437 -1.44995,-0.42232 -2.67232,-0.87732 -4.8128,-3.94579 -4.8128,-6.75896 l 0,-1.48219 1.8728,2.71025 a 1.7055666,1.7055666 47.099092 0 0 0.33345,0.35883 l 0.73023,0.58802 a 1.5367329,1.5367329 47.991571 0 1 0.32704,0.36311 z"
       inkscape:original-d="m 106.98856,212.82895 c -0.41752,0 -6.26275,-2.08758 -6.26275,-2.08758 v -6.57589 l 2.01349,2.91386 1.11575,0.89846 z"
       inkscape:path-effect="#path-effect21" />
    <path
       style="fill:#9b3e00;fill-opacity:1;fill-rule:evenodd;stroke-width:1.1;stroke-linecap:square;stroke-miterlimit:3.9;paint-order:stroke markers fill"
       d="m -17.286858,220.12017 0.289013,-0.43071 -6.015273,1.48494 -10.176417,4.10848 -1.140807,0.80974 8.884156,-0.77404 z"
       id="path21"
       sodipodi:nodetypes="ccccccc" />
    <path
       style="fill:#803300;fill-opacity:1;fill-rule:evenodd;stroke-width:0.636401;stroke-linecap:square;stroke-miterlimit:3.9;paint-order:stroke markers fill"
       d="m 106.98856,212.82895 c -0.12067,0 -0.69469,-0.17437 -1.44995,-0.42232 -2.67232,-0.87732 -4.8128,-3.94579 -4.8128,-6.75896 l 0,-1.48219 1.60298,2.512 a 10.383187,10.383187 61.164342 0 1 0.64765,1.17633 l 0.36796,0.7845 a 7.0369979,7.0369979 54.635757 0 0 1.44752,2.03956 z"
       id="path22"
       sodipodi:nodetypes="cccccc"
       transform="matrix(-1.4353017,-0.96308128,-0.96308128,1.4353017,324.20135,23.657582)"
       inkscape:original-d="m 106.98856,212.82895 c -0.41752,0 -6.26275,-2.08758 -6.26275,-2.08758 v -6.57589 l 1.96492,3.07918 1.19328,2.54413 z"
       inkscape:path-effect="#path-effect30" />
    <path
       id="path23"
       style="fill:#803300;fill-opacity:1;fill-rule:evenodd;stroke:none;stroke-width:0.636401;stroke-linecap:square;stroke-miterlimit:3.9;paint-order:stroke markers fill"
       transform="matrix(-0.46444695,1.6649041,-1.6649041,-0.46444695,369.6992,146.81468)"
       d="m 106.98856,212.82895 c -0.12067,0 -0.69469,-0.17437 -1.44995,-0.42232 -2.67232,-0.87732 -4.8128,-3.94579 -4.8128,-6.75896 l 0,-1.48219 1.8728,2.71025 a 1.7055666,1.7055666 47.099092 0 0 0.33345,0.35883 l 0.73023,0.58802 a 1.5367329,1.5367329 47.991571 0 1 0.32704,0.36311 z"
       inkscape:original-d="m 106.98856,212.82895 c -0.41752,0 -6.26275,-2.08758 -6.26275,-2.08758 v -6.57589 l 2.01349,2.91386 1.11575,0.89846 z"
       inkscape:path-effect="#path-effect32" />
    <path
       style="fill:#9b3e00;fill-opacity:1;fill-rule:evenodd;stroke-width:1.1;stroke-linecap:square;stroke-miterlimit:3.9;paint-order:stroke markers fill"
       d="m -46.479505,225.96898 -0.503746,0.12362 5.445961,2.95469 10.288642,3.81889 1.388591,0.17007 -7.08736,-5.41272 z"
       id="path24"
       sodipodi:nodetypes="ccccccc" />
    <path
       style="fill:#803300;fill-opacity:1;fill-rule:evenodd;stroke-width:0.636401;stroke-linecap:square;stroke-miterlimit:3.9;paint-order:stroke markers fill"
       d="m 106.98856,212.82895 c -0.12067,0 -0.69469,-0.17437 -1.44995,-0.42232 -2.67232,-0.87732 -4.8128,-3.94579 -4.8128,-6.75896 l 0,-1.48219 1.60298,2.512 a 10.383187,10.383187 61.164342 0 1 0.64765,1.17633 l 0.36796,0.7845 a 7.0369979,7.0369979 54.635757 0 0 1.44752,2.03956 z"
       id="path25"
       sodipodi:nodetypes="cccccc"
       transform="matrix(0.41199897,1.6786523,1.6786523,-0.41199897,-431.20577,141.12498)"
       inkscape:original-d="m 106.98856,212.82895 c -0.41752,0 -6.26275,-2.08758 -6.26275,-2.08758 v -6.57589 l 1.96492,3.07918 1.19328,2.54413 z"
       inkscape:path-effect="#path-effect34" />
    <path
       id="path26"
       style="fill:#803300;fill-opacity:1;fill-rule:evenodd;stroke:none;stroke-width:0.636401;stroke-linecap:square;stroke-miterlimit:3.9;paint-order:stroke markers fill"
       transform="matrix(1.4648024,-0.91758942,0.91758942,1.4648024,-381.8675,19.455499)"
       d="m 106.98856,212.82895 c -0.12067,0 -0.69469,-0.17437 -1.44995,-0.42232 -2.67232,-0.87732 -4.8128,-3.94579 -4.8128,-6.75896 l 0,-1.48219 1.8728,2.71025 a 1.7055666,1.7055666 47.099092 0 0 0.33345,0.35883 l 0.73023,0.58802 a 1.5367329,1.5367329 47.991571 0 1 0.32704,0.36311 z"
       inkscape:original-d="m 106.98856,212.82895 c -0.41752,0 -6.26275,-2.08758 -6.26275,-2.08758 v -6.57589 l 2.01349,2.91386 1.11575,0.89846 z"
       inkscape:path-effect="#path-effect36" />
    <path
       style="fill:#9b3e00;fill-opacity:1;fill-rule:evenodd;stroke-width:1.1;stroke-linecap:square;stroke-miterlimit:3.9;paint-order:stroke markers fill"
       d="m -28.515874,228.21633 -0.296092,0.0728 3.201083,1.73675 6.047584,2.24472 0.816187,0.0999 -4.165876,-3.18157 z"
       id="path27"
       sodipodi:nodetypes="ccccccc" />
    <path
       style="fill:#803300;fill-opacity:1;fill-rule:evenodd;stroke-width:1.08269;stroke-linecap:square;stroke-miterlimit:3.9;paint-order:stroke markers fill"
       d="m 106.98856,212.82895 c -0.12067,0 -0.69469,-0.17437 -1.44995,-0.42232 -2.67232,-0.87732 -4.8128,-3.94579 -4.8128,-6.75896 l 0,-1.48219 1.60298,2.512 a 10.383187,10.383187 61.164342 0 1 0.64765,1.17633 l 0.36796,0.7845 a 7.0369979,7.0369979 54.635757 0 0 1.44752,2.03956 z"
       id="path28"
       sodipodi:nodetypes="cccccc"
       transform="matrix(0.24217092,0.98670329,0.98670329,-0.24217092,-254.65632,178.34546)"
       inkscape:original-d="m 106.98856,212.82895 c -0.41752,0 -6.26275,-2.08758 -6.26275,-2.08758 v -6.57589 l 1.96492,3.07918 1.19328,2.54413 z"
       inkscape:path-effect="#path-effect38" />
    <path
       id="path29"
       style="fill:#803300;fill-opacity:1;fill-rule:evenodd;stroke:none;stroke-width:1.08269;stroke-linecap:square;stroke-miterlimit:3.9;paint-order:stroke markers fill"
       transform="matrix(0.8610035,-0.53935443,0.53935443,0.8610035,-225.65551,106.82877)"
       d="m 106.98856,212.82895 c -0.12067,0 -0.69469,-0.17437 -1.44995,-0.42232 -2.67232,-0.87732 -4.8128,-3.94579 -4.8128,-6.75896 l 0,-1.48219 1.8728,2.71025 a 1.7055666,1.7055666 47.099092 0 0 0.33345,0.35883 l 0.73023,0.58802 a 1.5367329,1.5367329 47.991571 0 1 0.32704,0.36311 z"
       inkscape:original-d="m 106.98856,212.82895 c -0.41752,0 -6.26275,-2.08758 -6.26275,-2.08758 v -6.57589 l 2.01349,2.91386 1.11575,0.89846 z"
       inkscape:path-effect="#path-effect40" />
    <path
       style="fill:#9b3e00;fill-opacity:1;fill-rule:evenodd;stroke-width:1.1;stroke-linecap:square;stroke-miterlimit:3.9;paint-order:stroke markers fill"
       d="m -7.9909482,212.93652 -0.2890067,-0.43071 6.0152533,1.48495 10.1764042,4.10847 1.1407834,0.80973 -8.8841339,-0.77404 z"
       id="path40"
       sodipodi:nodetypes="ccccccc" />
    <path
       style="fill:#803300;fill-opacity:1;fill-rule:evenodd;stroke-width:0.636401;stroke-linecap:square;stroke-miterlimit:3.9;paint-order:stroke markers fill"
       d="m 106.98856,212.82895 c -0.12067,0 -0.69469,-0.17437 -1.44995,-0.42232 -2.67232,-0.87732 -4.8128,-3.94579 -4.8128,-6.75896 l 0,-1.48219 1.60298,2.512 a 10.383187,10.383187 61.164342 0 1 0.64765,1.17633 l 0.36796,0.7845 a 7.0369979,7.0369979 54.635757 0 0 1.44752,2.03956 z"
       id="path41"
       sodipodi:nodetypes="cccccc"
       transform="matrix(1.4353017,-0.96308128,0.96308128,1.4353017,-349.48044,16.473945)"
       inkscape:original-d="m 106.98856,212.82895 c -0.41752,0 -6.26275,-2.08758 -6.26275,-2.08758 v -6.57589 l 1.96492,3.07918 1.19328,2.54413 z"
       inkscape:path-effect="#path-effect49" />
    <path
       id="path42"
       style="fill:#803300;fill-opacity:1;fill-rule:evenodd;stroke:none;stroke-width:0.636401;stroke-linecap:square;stroke-miterlimit:3.9;paint-order:stroke markers fill"
       transform="matrix(0.46444695,1.6649041,1.6649041,-0.46444695,-394.97829,139.63104)"
       d="m 106.98856,212.82895 c -0.12067,0 -0.69469,-0.17437 -1.44995,-0.42232 -2.67232,-0.87732 -4.8128,-3.94579 -4.8128,-6.75896 l 0,-1.48219 1.8728,2.71025 a 1.7055666,1.7055666 47.099092 0 0 0.33345,0.35883 l 0.73023,0.58802 a 1.5367329,1.5367329 47.991571 0 1 0.32704,0.36311 z"
       inkscape:original-d="m 106.98856,212.82895 c -0.41752,0 -6.26275,-2.08758 -6.26275,-2.08758 v -6.57589 l 2.01349,2.91386 1.11575,0.89846 z"
       inkscape:path-effect="#path-effect51" />
    <path
       style="fill:#9b3e00;fill-opacity:1;fill-rule:evenodd;stroke-width:1.1;stroke-linecap:square;stroke-miterlimit:3.9;paint-order:stroke markers fill"
       d="m 15.29957,224.09719 0.503737,0.12362 -5.445927,2.95469 -10.2885879,3.81889 -1.38858,0.17007 7.0873137,-5.41272 z"
       id="path43"
       sodipodi:nodetypes="ccccccc" />
    <path
       style="fill:#803300;fill-opacity:1;fill-rule:evenodd;stroke-width:0.636401;stroke-linecap:square;stroke-miterlimit:3.9;paint-order:stroke markers fill"
       d="m 106.98856,212.82895 c -0.12067,0 -0.69469,-0.17437 -1.44995,-0.42232 -2.67232,-0.87732 -4.8128,-3.94579 -4.8128,-6.75896 l 0,-1.48219 1.60298,2.512 a 10.383187,10.383187 61.164342 0 1 0.64765,1.17633 l 0.36796,0.7845 a 7.0369979,7.0369979 54.635757 0 0 1.44752,2.03956 z"
       id="path44"
       sodipodi:nodetypes="cccccc"
       transform="matrix(-0.41199897,1.6786523,-1.6786523,-0.41199897,400.02462,139.25318)"
       inkscape:original-d="m 106.98856,212.82895 c -0.41752,0 -6.26275,-2.08758 -6.26275,-2.08758 v -6.57589 l 1.96492,3.07918 1.19328,2.54413 z"
       inkscape:path-effect="#path-effect53" />
    <path
       id="path45"
       style="fill:#803300;fill-opacity:1;fill-rule:evenodd;stroke:none;stroke-width:0.636401;stroke-linecap:square;stroke-miterlimit:3.9;paint-order:stroke markers fill"
       transform="matrix(-1.4648024,-0.91758942,-0.91758942,1.4648024,350.68634,17.583686)"
       d="m 106.98856,212.82895 c -0.12067,0 -0.69469,-0.17437 -1.44995,-0.42232 -2.67232,-0.87732 -4.8128,-3.94579 -4.8128,-6.75896 l 0,-1.48219 1.8728,2.71025 a 1.7055666,1.7055666 47.099092 0 0 0.33345,0.35883 l 0.73023,0.58802 a 1.5367329,1.5367329 47.991571 0 1 0.32704,0.36311 z"
       inkscape:original-d="m 106.98856,212.82895 c -0.41752,0 -6.26275,-2.08758 -6.26275,-2.08758 v -6.57589 l 2.01349,2.91386 1.11575,0.89846 z"
       inkscape:path-effect="#path-effect55" />
    <path
       style="fill:#9b3e00;fill-opacity:1;fill-rule:evenodd;stroke-width:1.1;stroke-linecap:square;stroke-miterlimit:3.9;paint-order:stroke markers fill"
       d="m 3.2380623,221.03269 0.2960897,0.0727 -3.2010999,1.73676 -6.0475635,2.24473 -0.8162035,0.0999 4.1658837,-3.18157 z"
       id="path46"
       sodipodi:nodetypes="ccccccc" />
    <path
       style="fill:#803300;fill-opacity:1;fill-rule:evenodd;stroke-width:1.08269;stroke-linecap:square;stroke-miterlimit:3.9;paint-order:stroke markers fill"
       d="m 106.98856,212.82895 c -0.12067,0 -0.69469,-0.17437 -1.44995,-0.42232 -2.67232,-0.87732 -4.8128,-3.94579 -4.8128,-6.75896 l 0,-1.48219 1.60298,2.512 a 10.383187,10.383187 61.164342 0 1 0.64765,1.17633 l 0.36796,0.7845 a 7.0369979,7.0369979 54.635757 0 0 1.44752,2.03956 z"
       id="path47"
       sodipodi:nodetypes="cccccc"
       transform="matrix(-0.24217092,0.98670329,-0.98670329,-0.24217092,229.37724,171.16181)"
       inkscape:original-d="m 106.98856,212.82895 c -0.41752,0 -6.26275,-2.08758 -6.26275,-2.08758 v -6.57589 l 1.96492,3.07918 1.19328,2.54413 z"
       inkscape:path-effect="#path-effect57" />
    <path
       id="path48"
       style="fill:#803300;fill-opacity:1;fill-rule:evenodd;stroke:none;stroke-width:1.08269;stroke-linecap:square;stroke-miterlimit:3.9;paint-order:stroke markers fill"
       transform="matrix(-0.8610035,-0.53935443,-0.53935443,0.8610035,200.37645,99.645128)"
       d="m 106.98856,212.82895 c -0.12067,0 -0.69469,-0.17437 -1.44995,-0.42232 -2.67232,-0.87732 -4.8128,-3.94579 -4.8128,-6.75896 l 0,-1.48219 1.8728,2.71025 a 1.7055666,1.7055666 47.099092 0 0 0.33345,0.35883 l 0.73023,0.58802 a 1.5367329,1.5367329 47.991571 0 1 0.32704,0.36311 z"
       inkscape:original-d="m 106.98856,212.82895 c -0.41752,0 -6.26275,-2.08758 -6.26275,-2.08758 v -6.57589 l 2.01349,2.91386 1.11575,0.89846 z"
       inkscape:path-effect="#path-effect59" />
    <path
       style="fill:#9b3e00;fill-opacity:1;fill-rule:evenodd;stroke-width:1.1;stroke-linecap:square;stroke-miterlimit:3.9;paint-order:stroke markers fill"
       d="m -44.478979,219.18611 -0.29609,0.0727 3.201114,1.73675 6.047619,2.24473 0.816197,0.0999 -4.165912,-3.18157 z"
       id="path59"
       sodipodi:nodetypes="ccccccc" />
    <path
       style="fill:#803300;fill-opacity:1;fill-rule:evenodd;stroke-width:1.08269;stroke-linecap:square;stroke-miterlimit:3.9;paint-order:stroke markers fill"
       d="m 106.98856,212.82895 c -0.12067,0 -0.69469,-0.17437 -1.44995,-0.42232 -2.67232,-0.87732 -4.8128,-3.94579 -4.8128,-6.75896 l 0,-1.48219 1.60298,2.512 a 10.383187,10.383187 61.164342 0 1 0.64765,1.17633 l 0.36796,0.7845 a 7.0369979,7.0369979 54.635757 0 0 1.44752,2.03956 z"
       id="path60"
       sodipodi:nodetypes="cccccc"
       transform="matrix(0.24217092,0.98670329,0.98670329,-0.24217092,-270.61943,169.31522)"
       inkscape:original-d="m 106.98856,212.82895 c -0.41752,0 -6.26275,-2.08758 -6.26275,-2.08758 v -6.57589 l 1.96492,3.07918 1.19328,2.54413 z"
       inkscape:path-effect="#path-effect62" />
    <path
       id="path61"
       style="fill:#803300;fill-opacity:1;fill-rule:evenodd;stroke:none;stroke-width:1.08269;stroke-linecap:square;stroke-miterlimit:3.9;paint-order:stroke markers fill"
       transform="matrix(0.8610035,-0.53935443,0.53935443,0.8610035,-241.61864,97.798533)"
       d="m 106.98856,212.82895 c -0.12067,0 -0.69469,-0.17437 -1.44995,-0.42232 -2.67232,-0.87732 -4.8128,-3.94579 -4.8128,-6.75896 l 0,-1.48219 1.8728,2.71025 a 1.7055666,1.7055666 47.099092 0 0 0.33345,0.35883 l 0.73023,0.58802 a 1.5367329,1.5367329 47.991571 0 1 0.32704,0.36311 z"
       inkscape:original-d="m 106.98856,212.82895 c -0.41752,0 -6.26275,-2.08758 -6.26275,-2.08758 v -6.57589 l 2.01349,2.91386 1.11575,0.89846 z"
       inkscape:path-effect="#path-effect64" />
    <path
       style="fill:#9b3e00;fill-opacity:1;fill-rule:evenodd;stroke-width:1.1;stroke-linecap:square;stroke-miterlimit:3.9;paint-order:stroke markers fill"
       d="m -6.1519481,219.84982 0.2960867,0.0727 -3.2010902,1.73675 -6.0475724,2.24473 -0.816197,0.0999 4.165876,-3.18157 z"
       id="path64"
       sodipodi:nodetypes="ccccccc" />
    <path
       style="fill:#803300;fill-opacity:1;fill-rule:evenodd;stroke-width:1.08269;stroke-linecap:square;stroke-miterlimit:3.9;paint-order:stroke markers fill"
       d="m 106.98856,212.82895 c -0.12067,0 -0.69469,-0.17437 -1.44995,-0.42232 -2.67232,-0.87732 -4.8128,-3.94579 -4.8128,-6.75896 l 0,-1.48219 1.60298,2.512 a 10.383187,10.383187 61.164342 0 1 0.64765,1.17633 l 0.36796,0.7845 a 7.0369979,7.0369979 54.635757 0 0 1.44752,2.03956 z"
       id="path65"
       sodipodi:nodetypes="cccccc"
       transform="matrix(-0.24217092,0.98670329,-0.98670329,-0.24217092,219.98718,169.97894)"
       inkscape:original-d="m 106.98856,212.82895 c -0.41752,0 -6.26275,-2.08758 -6.26275,-2.08758 v -6.57589 l 1.96492,3.07918 1.19328,2.54413 z"
       inkscape:path-effect="#path-effect67" />
    <path
       id="path66"
       style="fill:#803300;fill-opacity:1;fill-rule:evenodd;stroke:none;stroke-width:1.08269;stroke-linecap:square;stroke-miterlimit:3.9;paint-order:stroke markers fill"
       transform="matrix(-0.8610035,-0.53935443,-0.53935443,0.8610035,190.98639,98.462257)"
       d="m 106.98856,212.82895 c -0.12067,0 -0.69469,-0.17437 -1.44995,-0.42232 -2.67232,-0.87732 -4.8128,-3.94579 -4.8128,-6.75896 l 0,-1.48219 1.8728,2.71025 a 1.7055666,1.7055666 47.099092 0 0 0.33345,0.35883 l 0.73023,0.58802 a 1.5367329,1.5367329 47.991571 0 1 0.32704,0.36311 z"
       inkscape:original-d="m 106.98856,212.82895 c -0.41752,0 -6.26275,-2.08758 -6.26275,-2.08758 v -6.57589 l 2.01349,2.91386 1.11575,0.89846 z"
       inkscape:path-effect="#path-effect69" />
    <path
       style="fill:#9b3e00;fill-opacity:1;fill-rule:evenodd;stroke-width:1.1;stroke-linecap:square;stroke-miterlimit:3.9;paint-order:stroke markers fill"
       d="m -52.333896,225.67834 0.296096,0.0727 -3.201112,1.73675 -6.047611,2.24472 -0.816205,0.0999 4.165912,-3.18157 z"
       id="path69"
       sodipodi:nodetypes="ccccccc" />
    <path
       style="fill:#803300;fill-opacity:1;fill-rule:evenodd;stroke-width:1.08269;stroke-linecap:square;stroke-miterlimit:3.9;paint-order:stroke markers fill"
       d="m 106.98856,212.82895 c -0.12067,0 -0.69469,-0.17437 -1.44995,-0.42232 -2.67232,-0.87732 -4.8128,-3.94579 -4.8128,-6.75896 l 0,-1.48219 1.60298,2.512 a 10.383187,10.383187 61.164342 0 1 0.64765,1.17633 l 0.36796,0.7845 a 7.0369979,7.0369979 54.635757 0 0 1.44752,2.03956 z"
       id="path70"
       sodipodi:nodetypes="cccccc"
       transform="matrix(-0.24217092,0.98670329,-0.98670329,-0.24217092,173.80508,175.80746)"
       inkscape:original-d="m 106.98856,212.82895 c -0.41752,0 -6.26275,-2.08758 -6.26275,-2.08758 v -6.57589 l 1.96492,3.07918 1.19328,2.54413 z"
       inkscape:path-effect="#path-effect72" />
    <path
       id="path71"
       style="fill:#803300;fill-opacity:1;fill-rule:evenodd;stroke:none;stroke-width:1.08269;stroke-linecap:square;stroke-miterlimit:3.9;paint-order:stroke markers fill"
       transform="matrix(-0.8610035,-0.53935443,-0.53935443,0.8610035,144.80428,104.29079)"
       d="m 106.98856,212.82895 c -0.12067,0 -0.69469,-0.17437 -1.44995,-0.42232 -2.67232,-0.87732 -4.8128,-3.94579 -4.8128,-6.75896 l 0,-1.48219 1.8728,2.71025 a 1.7055666,1.7055666 47.099092 0 0 0.33345,0.35883 l 0.73023,0.58802 a 1.5367329,1.5367329 47.991571 0 1 0.32704,0.36311 z"
       inkscape:original-d="m 106.98856,212.82895 c -0.41752,0 -6.26275,-2.08758 -6.26275,-2.08758 v -6.57589 l 2.01349,2.91386 1.11575,0.89846 z"
       inkscape:path-effect="#path-effect74" />
    <text
       xml:space="preserve"
       style="font-style:normal;font-variant:normal;font-weight:normal;font-stretch:normal;font-size:19.8901px;font-family:'MV Boli';-inkscape-font-specification:'MV Boli';letter-spacing:1.86469px;fill:#501616;fill-opacity:1;fill-rule:evenodd;stroke:none;stroke-width:0.992959;stroke-linecap:square;stroke-miterlimit:3.9;paint-order:stroke markers fill"
       id="text74"
       transform="matrix(1.0925438,-0.48496445,0.68041442,0.82125732,97.513724,26.172223)"><textPath
         xlink:href="#path74"
         id="textPath74"
         style="stroke-width:0.992959"><tspan
           id="tspan74"
           style="font-style:normal;font-variant:normal;font-weight:normal;font-stretch:normal;font-family:'MV Boli';-inkscape-font-specification:'MV Boli';letter-spacing:1.86469px;fill:#501616;fill-opacity:1;stroke-width:0.992959">Cafe Bliss</tspan></textPath></text>
    <ellipse
       style="fill:none;fill-opacity:1;fill-rule:evenodd;stroke:none;stroke-width:1.1;stroke-linecap:square;stroke-miterlimit:3.9;paint-order:stroke markers fill"
       id="path74"
       cx="177.54514"
       cy="113.74991"
       rx="65.481033"
       ry="52.384827"
       transform="scale(-1,1)" />
    <ellipse
       style="fill:#aa4400;fill-opacity:1;fill-rule:evenodd;stroke:none;stroke-width:1.1;stroke-linecap:square;stroke-miterlimit:3.9;paint-order:stroke markers fill"
       id="path75"
       cx="-33.446815"
       cy="144.78645"
       rx="38.225224"
       ry="12.532008" />
    <path
       id="path77"
       style="fill:#ff7f2a;fill-opacity:1;fill-rule:evenodd;stroke:none;stroke-width:1.1;stroke-linecap:square;stroke-miterlimit:3.9;paint-order:stroke markers fill"
       d="m -39.250828,136.61464 a 25.526259,8.1717277 0 0 0 -25.526259,8.17177 25.526259,8.1717277 0 0 0 25.526259,8.17178 25.526259,8.1717277 0 0 0 3.41672,-0.0754 26.133556,8.15372 0 0 1 -23.336056,-8.09642 26.133556,8.15372 0 0 1 23.351619,-8.09692 25.526259,8.1717277 0 0 0 -3.432283,-0.0748 z" />
    <path
       id="path78"
       style="fill:#ff7f2a;fill-opacity:1;fill-rule:evenodd;stroke:none;stroke-width:1.1;stroke-linecap:square;stroke-miterlimit:3.9;paint-order:stroke markers fill"
       d="m -27.771981,138.38524 a 25.526259,8.1717277 0 0 1 25.5261064,8.17178 25.526259,8.1717277 0 0 1 -25.5261064,8.17177 25.526259,8.1717277 0 0 1 -3.416706,-0.0754 26.133556,8.15372 0 0 0 23.3359188,-8.09643 26.133556,8.15372 0 0 0 -23.3514788,-8.09691 25.526259,8.1717277 0 0 1 3.432266,-0.0748 z" />
    <ellipse
       style="fill:#ff9046;fill-opacity:1;fill-rule:evenodd;stroke:none;stroke-width:1.1;stroke-linecap:square;stroke-miterlimit:3.9;paint-order:stroke markers fill"
       id="path79"
       cx="-32.052349"
       cy="145.40936"
       rx="8.9095984"
       ry="3.2343557" />
    <path
       id="path80"
       style="fill:#ff7f2a;fill-opacity:1;fill-rule:evenodd;stroke:none;stroke-width:1.1;stroke-linecap:square;stroke-miterlimit:3.9;paint-order:stroke markers fill"
       d="m -29.250282,140.15589 a 18.334463,6.4011326 0 0 1 18.334364,6.40117 18.334463,6.4011326 0 0 1 -18.334364,6.40117 18.334463,6.4011326 0 0 1 -2.454084,-0.0591 18.770659,6.3870266 0 0 0 16.761239,-6.34215 18.770659,6.3870266 0 0 0 -16.772415,-6.34254 18.334463,6.4011326 0 0 1 2.46526,-0.0587 z" />
    <path
       id="path81"
       style="fill:#ff7f2a;fill-opacity:1;fill-rule:evenodd;stroke:none;stroke-width:1.1;stroke-linecap:square;stroke-miterlimit:3.9;paint-order:stroke markers fill"
       d="m -36.125895,138.38534 a 18.334463,6.4011326 0 0 0 -18.334473,6.40117 18.334463,6.4011326 0 0 0 18.334473,6.40116 18.334463,6.4011326 0 0 0 2.454096,-0.0591 18.770659,6.3870266 0 0 1 -16.761331,-6.34214 18.770659,6.3870266 0 0 1 16.772507,-6.34253 18.334463,6.4011326 0 0 0 -2.465272,-0.0587 z" />
  </g>
</svg>
