<?xml version="1.0" encoding="UTF-8" standalone="no"?>
<!-- Created with Inkscape (http://www.inkscape.org/) -->

<svg
   width="210mm"
   height="297mm"
   viewBox="0 0 210 297"
   version="1.1"
   id="svg1"
   inkscape:version="1.3.2 (091e20e, 2023-11-25, custom)"
   sodipodi:docname="The Book.svg"
   xmlns:inkscape="http://www.inkscape.org/namespaces/inkscape"
   xmlns:sodipodi="http://sodipodi.sourceforge.net/DTD/sodipodi-0.dtd"
   xmlns="http://www.w3.org/2000/svg"
   xmlns:svg="http://www.w3.org/2000/svg">
  <sodipodi:namedview
     id="namedview1"
     pagecolor="#ffffff"
     bordercolor="#000000"
     borderopacity="0.25"
     inkscape:showpageshadow="2"
     inkscape:pageopacity="0.0"
     inkscape:pagecheckerboard="0"
     inkscape:deskcolor="#d1d1d1"
     inkscape:document-units="mm"
     showguides="true"
     inkscape:zoom="0.63370775"
     inkscape:cx="375.56745"
     inkscape:cy="695.11538"
     inkscape:window-width="1366"
     inkscape:window-height="697"
     inkscape:window-x="-8"
     inkscape:window-y="-8"
     inkscape:window-maximized="1"
     inkscape:current-layer="layer1" />
  <defs
     id="defs1">
    <inkscape:path-effect
       effect="fillet_chamfer"
       id="path-effect74"
       is_visible="true"
       lpeversion="1"
       nodesatellites_param="F,0,0,1,0,0,0,1 @ F,0,0,1,0,5.4739799,0,1 @ F,0,0,1,0,0,0,1 @ F,0,0,1,0,0,0,1 @ F,0,0,1,0,5.0169338,0,1 @ F,0,0,1,0,0,0,1"
       radius="0"
       unit="px"
       method="auto"
       mode="F"
       chamfer_steps="1"
       flexible="false"
       use_knot_distance="true"
       apply_no_radius="true"
       apply_with_radius="true"
       only_selected="false"
       hide_knots="false" />
    <inkscape:path-effect
       effect="fillet_chamfer"
       id="path-effect72"
       is_visible="true"
       lpeversion="1"
       nodesatellites_param="F,0,0,1,0,0,0,1 @ F,0,0,1,0,5.4739799,0,1 @ F,0,0,1,0,0,0,1 @ F,0,0,1,0,0,0,1 @ F,0,0,1,0,5.0169338,0,1 @ F,0,0,1,0,0,0,1"
       radius="0"
       unit="px"
       method="auto"
       mode="F"
       chamfer_steps="1"
       flexible="false"
       use_knot_distance="true"
       apply_no_radius="true"
       apply_with_radius="true"
       only_selected="false"
       hide_knots="false" />
    <inkscape:path-effect
       effect="fillet_chamfer"
       id="path-effect70"
       is_visible="true"
       lpeversion="1"
       nodesatellites_param="F,0,0,1,0,0,0,1 @ F,0,0,1,0,5.4739799,0,1 @ F,0,0,1,0,0,0,1 @ F,0,0,1,0,0,0,1 @ F,0,0,1,0,5.0169338,0,1 @ F,0,0,1,0,0,0,1"
       radius="0"
       unit="px"
       method="auto"
       mode="F"
       chamfer_steps="1"
       flexible="false"
       use_knot_distance="true"
       apply_no_radius="true"
       apply_with_radius="true"
       only_selected="false"
       hide_knots="false" />
    <inkscape:path-effect
       effect="fillet_chamfer"
       id="path-effect68"
       is_visible="true"
       lpeversion="1"
       nodesatellites_param="F,0,0,1,0,0,0,1 @ F,0,0,1,0,5.4739799,0,1 @ F,0,0,1,0,0,0,1 @ F,0,0,1,0,0,0,1 @ F,0,0,1,0,5.0169338,0,1 @ F,0,0,1,0,0,0,1"
       radius="0"
       unit="px"
       method="auto"
       mode="F"
       chamfer_steps="1"
       flexible="false"
       use_knot_distance="true"
       apply_no_radius="true"
       apply_with_radius="true"
       only_selected="false"
       hide_knots="false" />
    <inkscape:path-effect
       effect="fillet_chamfer"
       id="path-effect66"
       is_visible="true"
       lpeversion="1"
       nodesatellites_param="F,0,0,1,0,0,0,1 @ F,0,0,1,0,5.4739799,0,1 @ F,0,0,1,0,0,0,1 @ F,0,0,1,0,0,0,1 @ F,0,0,1,0,5.0169338,0,1 @ F,0,0,1,0,0,0,1"
       radius="0"
       unit="px"
       method="auto"
       mode="F"
       chamfer_steps="1"
       flexible="false"
       use_knot_distance="true"
       apply_no_radius="true"
       apply_with_radius="true"
       only_selected="false"
       hide_knots="false" />
    <inkscape:path-effect
       effect="fillet_chamfer"
       id="path-effect64"
       is_visible="true"
       lpeversion="1"
       nodesatellites_param="F,0,0,1,0,0,0,1 @ F,0,0,1,0,5.4739799,0,1 @ F,0,0,1,0,0,0,1 @ F,0,0,1,0,0,0,1 @ F,0,0,1,0,5.0169338,0,1 @ F,0,0,1,0,0,0,1"
       radius="0"
       unit="px"
       method="auto"
       mode="F"
       chamfer_steps="1"
       flexible="false"
       use_knot_distance="true"
       apply_no_radius="true"
       apply_with_radius="true"
       only_selected="false"
       hide_knots="false" />
    <inkscape:path-effect
       effect="fillet_chamfer"
       id="path-effect62"
       is_visible="true"
       lpeversion="1"
       nodesatellites_param="F,0,0,1,0,0,0,1 @ F,0,0,1,0,5.4739799,0,1 @ F,0,0,1,0,0,0,1 @ F,0,0,1,0,0,0,1 @ F,0,0,1,0,5.0169338,0,1 @ F,0,0,1,0,0,0,1"
       radius="0"
       unit="px"
       method="auto"
       mode="F"
       chamfer_steps="1"
       flexible="false"
       use_knot_distance="true"
       apply_no_radius="true"
       apply_with_radius="true"
       only_selected="false"
       hide_knots="false" />
    <inkscape:path-effect
       effect="fillet_chamfer"
       id="path-effect60"
       is_visible="true"
       lpeversion="1"
       nodesatellites_param="F,0,0,1,0,0,0,1 @ F,0,0,1,0,5.4739799,0,1 @ F,0,0,1,0,0,0,1 @ F,0,0,1,0,0,0,1 @ F,0,0,1,0,5.0169338,0,1 @ F,0,0,1,0,0,0,1"
       radius="0"
       unit="px"
       method="auto"
       mode="F"
       chamfer_steps="1"
       flexible="false"
       use_knot_distance="true"
       apply_no_radius="true"
       apply_with_radius="true"
       only_selected="false"
       hide_knots="false" />
    <inkscape:path-effect
       effect="fillet_chamfer"
       id="path-effect58"
       is_visible="true"
       lpeversion="1"
       nodesatellites_param="F,0,0,1,0,0,0,1 @ F,0,0,1,0,5.4739799,0,1 @ F,0,0,1,0,0,0,1 @ F,0,0,1,0,0,0,1 @ F,0,0,1,0,5.0169338,0,1 @ F,0,0,1,0,0,0,1"
       radius="0"
       unit="px"
       method="auto"
       mode="F"
       chamfer_steps="1"
       flexible="false"
       use_knot_distance="true"
       apply_no_radius="true"
       apply_with_radius="true"
       only_selected="false"
       hide_knots="false" />
    <inkscape:path-effect
       effect="fillet_chamfer"
       id="path-effect56"
       is_visible="true"
       lpeversion="1"
       nodesatellites_param="F,0,0,1,0,0,0,1 @ F,0,0,1,0,5.4739799,0,1 @ F,0,0,1,0,0,0,1 @ F,0,0,1,0,0,0,1 @ F,0,0,1,0,5.0169338,0,1 @ F,0,0,1,0,0,0,1"
       radius="0"
       unit="px"
       method="auto"
       mode="F"
       chamfer_steps="1"
       flexible="false"
       use_knot_distance="true"
       apply_no_radius="true"
       apply_with_radius="true"
       only_selected="false"
       hide_knots="false" />
    <inkscape:path-effect
       effect="fillet_chamfer"
       id="path-effect54"
       is_visible="true"
       lpeversion="1"
       nodesatellites_param="F,0,0,1,0,0,0,1 @ F,0,0,1,0,5.4739799,0,1 @ F,0,0,1,0,0,0,1 @ F,0,0,1,0,0,0,1 @ F,0,0,1,0,5.0169338,0,1 @ F,0,0,1,0,0,0,1"
       radius="0"
       unit="px"
       method="auto"
       mode="F"
       chamfer_steps="1"
       flexible="false"
       use_knot_distance="true"
       apply_no_radius="true"
       apply_with_radius="true"
       only_selected="false"
       hide_knots="false" />
    <inkscape:path-effect
       effect="fillet_chamfer"
       id="path-effect52"
       is_visible="true"
       lpeversion="1"
       nodesatellites_param="F,0,0,1,0,0,0,1 @ F,0,0,1,0,5.4739799,0,1 @ F,0,0,1,0,0,0,1 @ F,0,0,1,0,0,0,1 @ F,0,0,1,0,5.0169338,0,1 @ F,0,0,1,0,0,0,1"
       radius="0"
       unit="px"
       method="auto"
       mode="F"
       chamfer_steps="1"
       flexible="false"
       use_knot_distance="true"
       apply_no_radius="true"
       apply_with_radius="true"
       only_selected="false"
       hide_knots="false" />
    <inkscape:path-effect
       effect="fillet_chamfer"
       id="path-effect50"
       is_visible="true"
       lpeversion="1"
       nodesatellites_param="F,0,0,1,0,0,0,1 @ F,0,0,1,0,5.4739799,0,1 @ F,0,0,1,0,0,0,1 @ F,0,0,1,0,0,0,1 @ F,0,0,1,0,5.0169338,0,1 @ F,0,0,1,0,0,0,1"
       radius="0"
       unit="px"
       method="auto"
       mode="F"
       chamfer_steps="1"
       flexible="false"
       use_knot_distance="true"
       apply_no_radius="true"
       apply_with_radius="true"
       only_selected="false"
       hide_knots="false" />
    <inkscape:path-effect
       effect="fillet_chamfer"
       id="path-effect48"
       is_visible="true"
       lpeversion="1"
       nodesatellites_param="F,0,0,1,0,0,0,1 @ F,0,0,1,0,5.4739799,0,1 @ F,0,0,1,0,0,0,1 @ F,0,0,1,0,0,0,1 @ F,0,0,1,0,5.0169338,0,1 @ F,0,0,1,0,0,0,1"
       radius="0"
       unit="px"
       method="auto"
       mode="F"
       chamfer_steps="1"
       flexible="false"
       use_knot_distance="true"
       apply_no_radius="true"
       apply_with_radius="true"
       only_selected="false"
       hide_knots="false" />
    <inkscape:path-effect
       effect="fillet_chamfer"
       id="path-effect46"
       is_visible="true"
       lpeversion="1"
       nodesatellites_param="F,0,0,1,0,0,0,1 @ F,0,0,1,0,5.4739799,0,1 @ F,0,0,1,0,0,0,1 @ F,0,0,1,0,0,0,1 @ F,0,0,1,0,5.0169338,0,1 @ F,0,0,1,0,0,0,1"
       radius="0"
       unit="px"
       method="auto"
       mode="F"
       chamfer_steps="1"
       flexible="false"
       use_knot_distance="true"
       apply_no_radius="true"
       apply_with_radius="true"
       only_selected="false"
       hide_knots="false" />
    <inkscape:path-effect
       effect="fillet_chamfer"
       id="path-effect44"
       is_visible="true"
       lpeversion="1"
       nodesatellites_param="F,0,0,1,0,0,0,1 @ F,0,0,1,0,5.4739799,0,1 @ F,0,0,1,0,0,0,1 @ F,0,0,1,0,0,0,1 @ F,0,0,1,0,5.0169338,0,1 @ F,0,0,1,0,0,0,1"
       radius="0"
       unit="px"
       method="auto"
       mode="F"
       chamfer_steps="1"
       flexible="false"
       use_knot_distance="true"
       apply_no_radius="true"
       apply_with_radius="true"
       only_selected="false"
       hide_knots="false" />
    <inkscape:path-effect
       effect="fillet_chamfer"
       id="path-effect42"
       is_visible="true"
       lpeversion="1"
       nodesatellites_param="F,0,0,1,0,0,0,1 @ F,0,0,1,0,5.4739799,0,1 @ F,0,0,1,0,0,0,1 @ F,0,0,1,0,0,0,1 @ F,0,0,1,0,5.0169338,0,1 @ F,0,0,1,0,0,0,1"
       radius="0"
       unit="px"
       method="auto"
       mode="F"
       chamfer_steps="1"
       flexible="false"
       use_knot_distance="true"
       apply_no_radius="true"
       apply_with_radius="true"
       only_selected="false"
       hide_knots="false" />
    <inkscape:path-effect
       effect="fillet_chamfer"
       id="path-effect40"
       is_visible="true"
       lpeversion="1"
       nodesatellites_param="F,0,0,1,0,0,0,1 @ F,0,0,1,0,5.4739799,0,1 @ F,0,0,1,0,0,0,1 @ F,0,0,1,0,0,0,1 @ F,0,0,1,0,5.0169338,0,1 @ F,0,0,1,0,0,0,1"
       radius="0"
       unit="px"
       method="auto"
       mode="F"
       chamfer_steps="1"
       flexible="false"
       use_knot_distance="true"
       apply_no_radius="true"
       apply_with_radius="true"
       only_selected="false"
       hide_knots="false" />
    <inkscape:path-effect
       effect="fillet_chamfer"
       id="path-effect38"
       is_visible="true"
       lpeversion="1"
       nodesatellites_param="F,0,0,1,0,0,0,1 @ F,0,0,1,0,5.4739799,0,1 @ F,0,0,1,0,0,0,1 @ F,0,0,1,0,0,0,1 @ F,0,0,1,0,5.0169338,0,1 @ F,0,0,1,0,0,0,1"
       radius="0"
       unit="px"
       method="auto"
       mode="F"
       chamfer_steps="1"
       flexible="false"
       use_knot_distance="true"
       apply_no_radius="true"
       apply_with_radius="true"
       only_selected="false"
       hide_knots="false" />
    <inkscape:path-effect
       effect="fillet_chamfer"
       id="path-effect36"
       is_visible="true"
       lpeversion="1"
       nodesatellites_param="F,0,0,1,0,0,0,1 @ F,0,0,1,0,5.4739799,0,1 @ F,0,0,1,0,0,0,1 @ F,0,0,1,0,0,0,1 @ F,0,0,1,0,5.0169338,0,1 @ F,0,0,1,0,0,0,1"
       radius="0"
       unit="px"
       method="auto"
       mode="F"
       chamfer_steps="1"
       flexible="false"
       use_knot_distance="true"
       apply_no_radius="true"
       apply_with_radius="true"
       only_selected="false"
       hide_knots="false" />
    <inkscape:path-effect
       effect="fillet_chamfer"
       id="path-effect34"
       is_visible="true"
       lpeversion="1"
       nodesatellites_param="F,0,0,1,0,0,0,1 @ F,0,0,1,0,5.4739799,0,1 @ F,0,0,1,0,0,0,1 @ F,0,0,1,0,0,0,1 @ F,0,0,1,0,5.0169338,0,1 @ F,0,0,1,0,0,0,1"
       radius="0"
       unit="px"
       method="auto"
       mode="F"
       chamfer_steps="1"
       flexible="false"
       use_knot_distance="true"
       apply_no_radius="true"
       apply_with_radius="true"
       only_selected="false"
       hide_knots="false" />
    <inkscape:path-effect
       effect="fillet_chamfer"
       id="path-effect32"
       is_visible="true"
       lpeversion="1"
       nodesatellites_param="F,0,0,1,0,0,0,1 @ F,0,0,1,0,2.6184011,0,1 @ F,0,0,1,0,0,0,1 @ F,0,0,1,0,0.89993137,0,1 @ F,0,0,1,0,2.3903692,0,1 @ F,0,0,1,0,0.99298242,0,1"
       radius="0"
       unit="px"
       method="auto"
       mode="F"
       chamfer_steps="1"
       flexible="false"
       use_knot_distance="true"
       apply_no_radius="true"
       apply_with_radius="true"
       only_selected="false"
       hide_knots="false" />
    <inkscape:path-effect
       effect="fillet_chamfer"
       id="path-effect30"
       is_visible="true"
       lpeversion="1"
       nodesatellites_param="F,0,0,1,0,0,0,1 @ F,0,0,1,0,2.6184011,0,1 @ F,0,0,1,0,0,0,1 @ F,0,0,1,0,0,0,1 @ F,0,0,1,0,2.3903692,0,1 @ F,0,0,1,0,0,0,1"
       radius="0"
       unit="px"
       method="auto"
       mode="F"
       chamfer_steps="1"
       flexible="false"
       use_knot_distance="true"
       apply_no_radius="true"
       apply_with_radius="true"
       only_selected="false"
       hide_knots="false" />
    <inkscape:path-effect
       effect="fillet_chamfer"
       id="path-effect28"
       is_visible="true"
       lpeversion="1"
       nodesatellites_param="F,0,0,1,0,1.2272179,0,1 @ F,0,0,1,0,2.6184011,0,1 @ F,0,0,1,0,0.88875428,0,1 @ F,0,0,1,0,0,0,1 @ F,0,0,1,0,2.3903692,0,1 @ F,0,0,1,0,0,0,1"
       radius="0"
       unit="px"
       method="auto"
       mode="F"
       chamfer_steps="1"
       flexible="false"
       use_knot_distance="true"
       apply_no_radius="true"
       apply_with_radius="true"
       only_selected="false"
       hide_knots="false" />
    <inkscape:path-effect
       effect="fillet_chamfer"
       id="path-effect26"
       is_visible="true"
       lpeversion="1"
       nodesatellites_param="F,0,0,1,0,0,0,1 @ F,0,0,1,0,2.6184011,0,1 @ F,0,0,1,0,0,0,1 @ F,0,0,1,0,0.62563913,0,1 @ F,0,0,1,0,2.3903692,0,1 @ F,0,0,1,0,0.75688041,0,1"
       radius="0"
       unit="px"
       method="auto"
       mode="F"
       chamfer_steps="1"
       flexible="false"
       use_knot_distance="true"
       apply_no_radius="true"
       apply_with_radius="true"
       only_selected="false"
       hide_knots="false" />
    <inkscape:path-effect
       effect="fillet_chamfer"
       id="path-effect24"
       is_visible="true"
       lpeversion="1"
       nodesatellites_param="F,0,0,1,0,0,0,1 @ F,0,0,1,0,2.6184011,0,1 @ F,0,0,1,0,0,0,1 @ F,0,0,1,0,0,0,1 @ F,0,0,1,0,2.3903692,0,1 @ F,0,0,1,0,0,0,1"
       radius="0"
       unit="px"
       method="auto"
       mode="F"
       chamfer_steps="1"
       flexible="false"
       use_knot_distance="true"
       apply_no_radius="true"
       apply_with_radius="true"
       only_selected="false"
       hide_knots="false" />
    <inkscape:path-effect
       effect="fillet_chamfer"
       id="path-effect22"
       is_visible="true"
       lpeversion="1"
       nodesatellites_param="F,0,0,1,0,0,0,1 @ F,0,0,1,0,2.6184011,0,1 @ F,0,0,1,0,0,0,1 @ F,0,0,1,0,0,0,1 @ F,0,0,1,0,2.3903692,0,1 @ F,0,0,1,0,0,0,1"
       radius="0"
       unit="px"
       method="auto"
       mode="F"
       chamfer_steps="1"
       flexible="false"
       use_knot_distance="true"
       apply_no_radius="true"
       apply_with_radius="true"
       only_selected="false"
       hide_knots="false" />
    <inkscape:path-effect
       effect="fillet_chamfer"
       id="path-effect20"
       is_visible="true"
       lpeversion="1"
       nodesatellites_param="F,0,0,1,0,1.4461877,0,1 @ F,0,0,1,0,2.6184011,0,1 @ F,0,0,1,0,0.88875428,0,1 @ F,0,0,1,0,1.1983256,0,1 @ F,0,0,1,0,2.3903692,0,1 @ F,0,0,1,0,0,0,1"
       radius="0"
       unit="px"
       method="auto"
       mode="F"
       chamfer_steps="1"
       flexible="false"
       use_knot_distance="true"
       apply_no_radius="true"
       apply_with_radius="true"
       only_selected="false"
       hide_knots="false" />
    <inkscape:path-effect
       effect="fillet_chamfer"
       id="path-effect19"
       is_visible="true"
       lpeversion="1"
       nodesatellites_param="F,0,0,1,0,0,0,1 @ F,0,0,1,0,4.2222033,0,1 @ F,0,0,1,0,0.59849814,0,1 @ F,0,0,1,0,0.69311097,0,1 @ F,0,0,1,0,2.8650967,0,1 @ F,0,0,1,0,0,0,1"
       radius="0"
       unit="px"
       method="auto"
       mode="F"
       chamfer_steps="1"
       flexible="false"
       use_knot_distance="true"
       apply_no_radius="true"
       apply_with_radius="true"
       only_selected="false"
       hide_knots="false" />
    <inkscape:path-effect
       effect="fillet_chamfer"
       id="path-effect18"
       is_visible="true"
       lpeversion="1"
       nodesatellites_param="F,0,0,1,0,0,0,1 @ F,0,0,1,0,5.4739799,0,1 @ F,0,0,1,0,0,0,1 @ F,0,0,1,0,0,0,1 @ F,0,0,1,0,5.0169338,0,1 @ F,0,0,1,0,0,0,1"
       radius="0"
       unit="px"
       method="auto"
       mode="F"
       chamfer_steps="1"
       flexible="false"
       use_knot_distance="true"
       apply_no_radius="true"
       apply_with_radius="true"
       only_selected="false"
       hide_knots="false" />
    <inkscape:path-effect
       effect="fillet_chamfer"
       id="path-effect16"
       is_visible="true"
       lpeversion="1"
       nodesatellites_param="F,0,0,1,0,0,0,1 @ F,0,0,1,0,5.4739799,0,1 @ F,0,0,1,0,0,0,1 @ F,0,0,1,0,0,0,1 @ F,0,0,1,0,5.0169338,0,1 @ F,0,0,1,0,0,0,1"
       radius="0"
       unit="px"
       method="auto"
       mode="F"
       chamfer_steps="1"
       flexible="false"
       use_knot_distance="true"
       apply_no_radius="true"
       apply_with_radius="true"
       only_selected="false"
       hide_knots="false" />
    <inkscape:path-effect
       effect="fillet_chamfer"
       id="path-effect14"
       is_visible="true"
       lpeversion="1"
       nodesatellites_param="F,0,0,1,0,0,0,1 @ F,0,0,1,0,5.4739799,0,1 @ F,0,0,1,0,0,0,1 @ F,0,0,1,0,0,0,1 @ F,0,0,1,0,5.0169338,0,1 @ F,0,0,1,0,0,0,1"
       radius="0"
       unit="px"
       method="auto"
       mode="F"
       chamfer_steps="1"
       flexible="false"
       use_knot_distance="true"
       apply_no_radius="true"
       apply_with_radius="true"
       only_selected="false"
       hide_knots="false" />
    <inkscape:path-effect
       effect="fillet_chamfer"
       id="path-effect12"
       is_visible="true"
       lpeversion="1"
       nodesatellites_param="F,0,0,1,0,0,0,1 @ F,0,0,1,0,5.4739799,0,1 @ F,0,0,1,0,0,0,1 @ F,0,0,1,0,0,0,1 @ F,0,0,1,0,5.0169338,0,1 @ F,0,0,1,0,0,0,1"
       radius="0"
       unit="px"
       method="auto"
       mode="F"
       chamfer_steps="1"
       flexible="false"
       use_knot_distance="true"
       apply_no_radius="true"
       apply_with_radius="true"
       only_selected="false"
       hide_knots="false" />
    <inkscape:path-effect
       effect="fillet_chamfer"
       id="path-effect10"
       is_visible="true"
       lpeversion="1"
       nodesatellites_param="F,0,0,1,0,2.0842448,0,1 @ F,0,0,1,0,5.4739799,0,1 @ F,0,0,1,0,1.7234097,0,1 @ F,0,0,1,0,0,0,1 @ F,0,0,1,0,5.0169338,0,1 @ F,0,0,1,0,0,0,1"
       radius="0"
       unit="px"
       method="auto"
       mode="F"
       chamfer_steps="1"
       flexible="false"
       use_knot_distance="true"
       apply_no_radius="true"
       apply_with_radius="true"
       only_selected="false"
       hide_knots="false" />
    <inkscape:path-effect
       effect="fillet_chamfer"
       id="path-effect9"
       is_visible="true"
       lpeversion="1"
       nodesatellites_param="F,0,0,1,0,0,0,1 @ F,0,0,1,0,10.021099,0,1 @ F,0,0,1,0,0,0,1 @ F,0,0,1,0,0,0,1 @ F,0,1,1,0,10.021099,0,1 @ F,0,0,1,0,0,0,1"
       radius="0"
       unit="px"
       method="auto"
       mode="F"
       chamfer_steps="1"
       flexible="false"
       use_knot_distance="true"
       apply_no_radius="true"
       apply_with_radius="true"
       only_selected="false"
       hide_knots="false" />
    <inkscape:path-effect
       effect="fillet_chamfer"
       id="path-effect7"
       is_visible="true"
       lpeversion="1"
       nodesatellites_param="F,0,0,1,0,0,0,1 @ F,0,0,1,0,13.950704,0,1 @ F,0,0,1,0,0,0,1 @ F,0,0,1,0,0,0,1 @ F,0,0,1,0,14.887591,0,1 @ F,0,0,1,0,0,0,1"
       radius="0"
       unit="px"
       method="auto"
       mode="F"
       chamfer_steps="1"
       flexible="false"
       use_knot_distance="true"
       apply_no_radius="true"
       apply_with_radius="true"
       only_selected="false"
       hide_knots="false" />
    <inkscape:path-effect
       effect="fillet_chamfer"
       id="path-effect3"
       is_visible="true"
       lpeversion="1"
       nodesatellites_param="F,0,0,1,0,0,0,1 @ F,0,0,1,0,10.021099,0,1 @ F,0,0,1,0,0,0,1 @ F,0,0,1,0,0,0,1 @ F,0,1,1,0,10.021099,0,1 @ F,0,0,1,0,0,0,1"
       radius="0"
       unit="px"
       method="auto"
       mode="F"
       chamfer_steps="1"
       flexible="false"
       use_knot_distance="true"
       apply_no_radius="true"
       apply_with_radius="true"
       only_selected="false"
       hide_knots="false" />
    <inkscape:path-effect
       effect="fillet_chamfer"
       id="path-effect2"
       is_visible="true"
       lpeversion="1"
       nodesatellites_param="F,0,0,1,0,0,0,1 @ F,0,0,1,0,13.950704,0,1 @ F,0,0,1,0,0,0,1 @ F,0,0,1,0,0,0,1 @ F,0,0,1,0,14.887591,0,1 @ F,0,0,1,0,0,0,1"
       radius="0"
       unit="px"
       method="auto"
       mode="F"
       chamfer_steps="1"
       flexible="false"
       use_knot_distance="true"
       apply_no_radius="true"
       apply_with_radius="true"
       only_selected="false"
       hide_knots="false" />
    <inkscape:path-effect
       effect="fillet_chamfer"
       id="path-effect1"
       is_visible="true"
       lpeversion="1"
       nodesatellites_param="F,0,0,1,0,0,0,1 @ F,0,0,1,0,0,0,1 @ F,0,0,1,0,0,0,1 @ F,0,0,1,0,12.428466,0,1 @ F,0,0,1,0,0,0,1"
       radius="0"
       unit="px"
       method="auto"
       mode="F"
       chamfer_steps="1"
       flexible="false"
       use_knot_distance="true"
       apply_no_radius="true"
       apply_with_radius="true"
       only_selected="false"
       hide_knots="false" />
  </defs>
  <g
     inkscape:label="Layer 1"
     inkscape:groupmode="layer"
     id="layer1">
    <path
       id="path2"
       style="fill:#cccccc;fill-rule:evenodd;stroke:#000000;stroke-width:0;stroke-linecap:square;stroke-miterlimit:3.9;stroke-dasharray:none;stroke-opacity:1;paint-order:stroke markers fill"
       d="m 45.123152,103.53476 -5.777498,3.9914 0.249791,104.16003 21.049656,-2.42628 a 123.96103,123.96103 0 0 1 33.554034,0.70569 l 15.618895,2.46908 15.61802,-2.46908 a 123.96103,123.96103 0 0 1 33.5549,-0.70569 l 21.04966,2.42628 0.24979,-104.16003 -5.77749,-3.9914 V 207.32009 L 157.5158,199.3958 a 36.327317,36.327317 0 0 0 -30.70066,0 l -16.99711,7.92429 -16.997115,-7.92429 a 36.327317,36.327317 0 0 0 -30.700652,0 l -16.997111,7.92429 z" />
    <path
       id="path1"
       style="fill:#ececec;fill-rule:evenodd;stroke:#000000;stroke-width:0;stroke-linecap:square;stroke-miterlimit:3.9;stroke-dasharray:none;stroke-opacity:1;paint-order:stroke markers fill"
       d="m 74.313714,93.956242 a 51.468797,51.468797 0 0 0 -18.279257,4.579209 l -10.911305,4.999309 v 103.78533 l 9.119974,-3.79751 a 60.414734,60.414734 0 0 1 46.454924,0 l 9.11998,3.79751 9.11998,-3.79751 a 60.414734,60.414734 0 0 1 46.45491,0 l 9.11999,3.79751 V 103.53476 L 163.6016,98.535451 a 51.468797,51.468797 0 0 0 -42.87226,0 L 109.81803,103.53476 98.906725,98.535451 A 51.468797,51.468797 0 0 0 74.313714,93.956242 Z" />
    <path
       style="fill:#9c9c9c;fill-opacity:1;fill-rule:evenodd;stroke:none;stroke-width:0;stroke-linecap:square;stroke-miterlimit:3.9;stroke-dasharray:none;stroke-opacity:1;paint-order:stroke markers fill"
       d="m 91.069938,121.46249 8.586518,-1.90876 a 23.588432,23.588432 0.53204212 0 1 10.664104,0.099 l 9.29316,2.24773 a 2.1072126,2.1072126 50.022128 0 1 1.67477,1.99748 l -11.39995,-2.6299 a 22.194556,22.194556 0.25322632 0 0 -9.78685,-0.0433 l -11.016454,2.43907 a 2.3274136,2.3274136 132.03665 0 1 1.984702,-2.2014 z"
       id="path10"
       inkscape:path-effect="#path-effect10"
       inkscape:original-d="M 89.035357,121.91477 105,118.36588 l 16.28883,3.93977 -3.4e-4,1.59232 L 105,120.14032 89.085236,123.66389 Z"
       transform="matrix(1.6901195,0,0,1.6901195,-99.992042,-95.555286)"
       sodipodi:nodetypes="ccccccc" />
    <path
       id="path11"
       style="fill:#9c9c9c;fill-opacity:1;fill-rule:evenodd;stroke:none;stroke-width:0;stroke-linecap:square;stroke-miterlimit:3.9;stroke-dasharray:none;stroke-opacity:1;paint-order:stroke markers fill"
       d="m 75.639512,112.73946 a 39.191311,24.37961 0 0 0 -7.200249,0.56683 l -17.950856,2.48306 0.08385,1.83849 18.619874,-2.56428 a 37.511452,23.334626 0 0 1 9.480692,-0.52492 l -0.708329,-0.0227 0.08653,-1.7564 a 39.191311,24.37961 0 0 0 -2.411446,-0.0201 z m 3.440305,0.028 0.444553,0.0184 a 39.191311,24.37961 0 0 0 -0.444553,-0.0184 z m 1.379966,0.0803 -0.0068,1.74678 -0.821855,-0.0262 a 37.511452,23.334626 0 0 1 6.101517,0.54064 l 19.267935,2.76515 v -1.5363 l -18.554365,-2.88481 a 39.191311,24.37961 0 0 0 -5.986235,-0.60526 z" />
    <path
       style="fill:#9c9c9c;fill-opacity:1;fill-rule:evenodd;stroke:none;stroke-width:0;stroke-linecap:square;stroke-miterlimit:3.9;stroke-dasharray:none;stroke-opacity:1;paint-order:stroke markers fill"
       d="m 89.035357,121.91477 10.621099,-2.36104 a 23.188485,23.188485 0.74945802 0 1 10.654184,0.13937 l 10.97785,2.74356 v 1.46131 l -11.39995,-2.6299 a 22.194556,22.194556 0.25322632 0 0 -9.78685,-0.0433 l -11.016454,2.43907 z"
       id="path12"
       inkscape:path-effect="#path-effect14"
       inkscape:original-d="M 89.035357,121.91477 105,118.36588 l 16.28849,4.07078 v 1.46131 L 105,120.14032 89.085236,123.66389 Z"
       transform="matrix(1.6901195,0,0,1.6901195,-99.992042,-52.62623)" />
    <path
       style="fill:#9c9c9c;fill-opacity:1;fill-rule:evenodd;stroke:none;stroke-width:0;stroke-linecap:square;stroke-miterlimit:3.9;stroke-dasharray:none;stroke-opacity:1;paint-order:stroke markers fill"
       d="m 51.445853,131.10258 v 14.65729 l 14.09595,-2.68197 -0.37423,-15.59285 z"
       id="path14"
       sodipodi:nodetypes="ccccc" />
    <path
       style="fill:#9c9c9c;fill-opacity:1;fill-rule:evenodd;stroke:none;stroke-width:0;stroke-linecap:square;stroke-miterlimit:3.9;stroke-dasharray:none;stroke-opacity:1;paint-order:stroke markers fill"
       d="m 89.035357,121.91477 10.621099,-2.36104 a 23.188485,23.188485 0.74945802 0 1 10.654184,0.13937 l 10.97785,2.74356 v 1.46131 l -11.39995,-2.6299 a 22.194556,22.194556 0.25322632 0 0 -9.78685,-0.0433 l -11.016454,2.43907 z"
       id="path15"
       inkscape:path-effect="#path-effect16"
       inkscape:original-d="M 89.035357,121.91477 105,118.36588 l 16.28849,4.07078 v 1.46131 L 105,120.14032 89.085236,123.66389 Z"
       transform="matrix(1.6901195,0,0,1.6901195,-99.992042,-47.260097)" />
    <path
       style="fill:#9c9c9c;fill-opacity:1;fill-rule:evenodd;stroke:none;stroke-width:0;stroke-linecap:square;stroke-miterlimit:3.9;stroke-dasharray:none;stroke-opacity:1;paint-order:stroke markers fill"
       d="m 89.601888,128.12922 10.812152,-1.70438 a 28.801371,28.801371 179.38186 0 1 8.35462,-0.0901 l 3.93225,0.53319 a 0.67362431,0.67362431 49.342144 0 1 0.58302,0.67883 l -0.004,0.26224 a 0.62574631,0.62574631 138.88644 0 1 -0.69986,0.61082 l -5.15005,-0.61506 a 22.267256,22.267256 179.47857 0 0 -5.68311,0.0517 l -12.144622,1.67512 z"
       id="path18"
       inkscape:path-effect="#path-effect19"
       inkscape:original-d="m 89.601888,128.12922 14.982852,-2.36183 8.70924,1.18092 -0.0261,1.55366 -8.68315,-1.03701 -14.982852,2.0666 z"
       sodipodi:nodetypes="ccccccc"
       transform="matrix(1.6901195,0,0,1.6901195,-99.992042,-95.555286)" />
    <path
       style="fill:#9c9c9c;fill-opacity:1;fill-rule:evenodd;stroke:none;stroke-width:0;stroke-linecap:square;stroke-miterlimit:3.9;stroke-dasharray:none;stroke-opacity:1;paint-order:stroke markers fill"
       d="m 101.1051,132.19952 0.90309,-0.16342 a 15.758315,15.758315 179.17655 0 1 5.16544,-0.0743 l 1.70224,0.25777 a 0.97405216,0.97405216 50.988884 0 1 0.82654,1.02028 l -2.75479,-0.4214 a 13.38489,13.38489 178.57157 0 0 -4.70481,0.11732 l -2.508597,0.51284 a 1.4028606,1.4028606 137.66053 0 1 1.370887,-1.24914 z"
       id="path19"
       inkscape:path-effect="#path-effect20"
       inkscape:original-d="m 99.682024,132.45705 4.902716,-0.88722 5.16987,0.78285 -0.0522,0.88722 -5.11767,-0.78285 -4.850527,0.99161 z"
       transform="matrix(1.6901195,0,0,1.4278029,-99.992042,-60.986088)" />
    <path
       style="fill:#9c9c9c;fill-opacity:1;fill-rule:evenodd;stroke:none;stroke-width:0;stroke-linecap:square;stroke-miterlimit:3.9;stroke-dasharray:none;stroke-opacity:1;paint-order:stroke markers fill"
       d="m 99.682024,132.45705 2.326166,-0.42095 a 15.758315,15.758315 179.17655 0 1 5.16544,-0.0743 l 2.58098,0.39083 -0.0522,0.88722 -2.75479,-0.4214 a 13.38489,13.38489 178.57157 0 0 -4.70481,0.11732 l -2.508597,0.51284 z"
       id="path20"
       inkscape:path-effect="#path-effect22"
       inkscape:original-d="m 99.682024,132.45705 4.902716,-0.88722 5.16987,0.78285 -0.0522,0.88722 -5.11767,-0.78285 -4.850527,0.99161 z"
       transform="matrix(1.6901195,0,0,1.4278029,-99.992042,-59.197377)" />
    <path
       style="fill:#9c9c9c;fill-opacity:1;fill-rule:evenodd;stroke:none;stroke-width:0;stroke-linecap:square;stroke-miterlimit:3.9;stroke-dasharray:none;stroke-opacity:1;paint-order:stroke markers fill"
       d="m 99.665879,132.75284 2.462201,-0.95707 a 7.7290966,7.7290966 177.47357 0 1 4.95509,-0.21863 l 2.67144,0.77554 -0.0522,0.88722 -2.81523,-0.70592 a 7.7336084,7.7336084 176.90085 0 0 -4.56085,0.24694 l -2.608262,0.96353 z"
       id="path22"
       inkscape:path-effect="#path-effect24"
       inkscape:original-d="m 99.665879,132.75284 4.902711,-1.90571 5.18602,1.50555 -0.0522,0.88722 -5.13382,-1.2873 -4.850522,1.79185 z"
       transform="matrix(1.6901195,0,0,0.60624004,-99.992042,51.640034)"
       sodipodi:nodetypes="ccccccc" />
    <path
       style="fill:#9c9c9c;fill-opacity:1;fill-rule:evenodd;stroke:none;stroke-width:0;stroke-linecap:square;stroke-miterlimit:3.9;stroke-dasharray:none;stroke-opacity:1;paint-order:stroke markers fill"
       d="m 99.682024,132.45705 2.326166,-0.42095 a 15.758315,15.758315 179.17655 0 1 5.16544,-0.0743 l 2.58098,0.39083 -0.0155,0.26266 a 0.56998706,0.56998706 141.03213 0 1 -0.6552,0.52996 l -2.13634,-0.3268 a 13.38489,13.38489 178.57157 0 0 -4.70481,0.11732 l -1.76705,0.36124 a 0.65169539,0.65169539 37.716649 0 1 -0.781327,-0.60423 z"
       id="path24"
       inkscape:path-effect="#path-effect26"
       inkscape:original-d="m 99.682024,132.45705 4.902716,-0.88722 5.16987,0.78285 -0.0522,0.88722 -5.11767,-0.78285 -4.850527,0.99161 z"
       transform="matrix(1.6901195,0,0,1.4278029,-99.992042,-55.619956)" />
    <path
       style="fill:#9c9c9c;fill-opacity:1;fill-rule:evenodd;stroke:none;stroke-width:0;stroke-linecap:square;stroke-miterlimit:3.9;stroke-dasharray:none;stroke-opacity:1;paint-order:stroke markers fill"
       d="m 100.88963,132.23852 1.11856,-0.20242 a 15.758315,15.758315 179.17655 0 1 5.16544,-0.0743 l 1.70224,0.25777 a 0.97405216,0.97405216 50.988884 0 1 0.82654,1.02028 l -2.75479,-0.4214 a 13.38489,13.38489 178.57157 0 0 -4.70481,0.11732 l -2.508597,0.51284 a 1.2655848,1.2655848 133.67465 0 1 1.155417,-1.21014 z"
       id="path26"
       inkscape:path-effect="#path-effect28"
       inkscape:original-d="m 99.682024,132.45705 4.902716,-0.88722 5.16987,0.78285 -0.0522,0.88722 -5.11767,-0.78285 -4.850527,0.99161 z"
       transform="matrix(1.6901195,0,0,1.4278029,-99.992042,-52.042534)" />
    <path
       style="fill:#9c9c9c;fill-opacity:1;fill-rule:evenodd;stroke:none;stroke-width:0;stroke-linecap:square;stroke-miterlimit:3.9;stroke-dasharray:none;stroke-opacity:1;paint-order:stroke markers fill"
       d="m 99.6755,132.48938 2.38411,-0.65395 a 10.173605,10.173605 179.09429 0 1 5.07089,-0.0802 l 2.61759,0.62975 -0.0522,0.88722 -2.75479,-0.4214 a 13.384896,13.384896 178.57158 0 0 -4.70481,0.11732 l -2.508601,0.51284 z"
       id="path28"
       inkscape:path-effect="#path-effect30"
       inkscape:original-d="m 99.6755,132.48938 4.90924,-1.34659 5.16335,1.24222 -0.0522,0.88722 -5.11767,-0.78285 -4.850531,0.99161 z"
       transform="matrix(1.6901195,0,0,0.82621476,-99.992042,29.613764)"
       sodipodi:nodetypes="ccccccc" />
    <path
       style="fill:#9c9c9c;fill-opacity:1;fill-rule:evenodd;stroke:none;stroke-width:0;stroke-linecap:square;stroke-miterlimit:3.9;stroke-dasharray:none;stroke-opacity:1;paint-order:stroke markers fill"
       d="m 99.682024,132.45705 2.326166,-0.42095 a 15.758315,15.758315 179.17655 0 1 5.16544,-0.0743 l 2.58098,0.39083 a 0.8148081,0.8148081 141.42511 0 1 -0.94178,0.75114 l -1.86521,-0.28532 a 13.38489,13.38489 178.57157 0 0 -4.70481,0.11732 l -1.53574,0.31395 a 0.85498588,0.85498588 37.716649 0 1 -1.025046,-0.79272 z"
       id="path30"
       inkscape:path-effect="#path-effect32"
       inkscape:original-d="m 99.682024,132.45705 4.902716,-0.88722 5.16987,0.78285 -0.0522,0.88722 -5.11767,-0.78285 -4.850527,0.99161 z"
       transform="matrix(1.6901195,0,0,1.4278029,-99.992042,-48.465112)" />
    <path
       id="path32"
       style="fill:#9c9c9c;fill-opacity:1;fill-rule:evenodd;stroke:none;stroke-width:0;stroke-linecap:square;stroke-miterlimit:3.9;stroke-dasharray:none;stroke-opacity:1;paint-order:stroke markers fill"
       d="m 73.564332,159.41971 a 39.191311,39.191311 0 0 0 -5.125069,0.74675 l -17.950856,3.99054 0.08385,2.95556 18.619874,-4.12242 a 37.511452,37.511452 0 0 1 4.372204,-0.66727 z m 6.860516,0.005 v 2.84464 a 37.511452,37.511452 0 0 1 5.307597,0.79479 l 19.267935,4.44469 v -2.46995 l -18.554365,-4.63685 a 39.191311,39.191311 0 0 0 -6.021167,-0.97732 z" />
    <path
       style="fill:#9c9c9c;fill-opacity:1;fill-rule:evenodd;stroke:none;stroke-width:0;stroke-linecap:square;stroke-miterlimit:3.9;stroke-dasharray:none;stroke-opacity:1;paint-order:stroke markers fill"
       d="m 89.035357,121.91477 10.621099,-2.36104 a 23.188485,23.188485 0.74945802 0 1 10.654184,0.13937 l 10.97785,2.74356 v 1.46131 l -11.39995,-2.6299 a 22.194556,22.194556 0.25322632 0 0 -9.78685,-0.0433 l -11.016454,2.43907 z"
       id="path34"
       inkscape:path-effect="#path-effect36"
       inkscape:original-d="M 89.035357,121.91477 105,118.36588 l 16.28849,4.07078 v 1.46131 L 105,120.14032 89.085236,123.66389 Z"
       transform="matrix(1.6901195,0,0,1.6901195,-99.992042,-37.422187)" />
    <path
       id="path36"
       style="fill:#9c9c9c;fill-opacity:1;fill-rule:evenodd;stroke:none;stroke-width:0;stroke-linecap:square;stroke-miterlimit:3.9;stroke-dasharray:none;stroke-opacity:1;paint-order:stroke markers fill"
       d="m 75.639512,168.19732 a 39.191311,39.191311 0 0 0 -7.200249,0.9127 l -3.269111,0.72665 0.474253,2.88221 3.547723,-0.7852 a 37.511452,37.511452 0 0 1 16.540317,0.0733 l 13.65027,3.14859 0.407,-2.47519 2.815815,0.70307 -16.159515,-4.03856 a 39.191311,39.191311 0 0 0 -10.806503,-1.14764 z m -13.96468,2.41667 -11.186425,2.48655 0.08385,2.95556 11.536654,-2.5538 z m 40.949038,2.7739 -0.45329,2.41143 2.8298,0.65244 v -2.46996 z" />
    <path
       style="fill:#9c9c9c;fill-opacity:1;fill-rule:evenodd;stroke:none;stroke-width:0;stroke-linecap:square;stroke-miterlimit:3.9;stroke-dasharray:none;stroke-opacity:1;paint-order:stroke markers fill"
       d="m 89.035357,121.91477 10.621099,-2.36104 a 23.188485,23.188485 0.74945802 0 1 10.654184,0.13937 l 10.97785,2.74356 v 1.46131 l -11.39995,-2.6299 a 22.194556,22.194556 0.25322632 0 0 -9.78685,-0.0433 l -11.016454,2.43907 z"
       id="path38"
       inkscape:path-effect="#path-effect40"
       inkscape:original-d="M 89.035357,121.91477 105,118.36588 l 16.28849,4.07078 v 1.46131 L 105,120.14032 89.085236,123.66389 Z"
       transform="matrix(1.6901195,0,0,1.6901195,-99.992042,-27.584277)" />
    <path
       id="path40"
       style="fill:#9c9c9c;fill-opacity:1;fill-rule:evenodd;stroke:none;stroke-width:0;stroke-linecap:square;stroke-miterlimit:3.9;stroke-dasharray:none;stroke-opacity:1;paint-order:stroke markers fill"
       d="m 75.639512,178.92957 a 39.191311,39.191311 0 0 0 -7.200249,0.91269 l -17.950856,3.99054 0.08385,2.95557 18.619874,-4.12242 a 37.511452,37.511452 0 0 1 12.830154,-0.5712 l -0.675136,-0.0962 0.151097,-2.78437 a 39.191311,39.191311 0 0 0 -5.858731,-0.28474 z m 6.744354,0.37818 0.956371,0.14501 a 39.191311,39.191311 0 0 0 -0.956371,-0.14501 z m 1.731071,0.30045 -0.300453,2.74071 -0.869025,-0.12321 a 37.511452,37.511452 0 0 1 2.786986,0.51356 l 19.267935,4.4447 V 184.714 l -18.554365,-4.63684 a 39.191311,39.191311 0 0 0 -2.331078,-0.46901 z" />
    <path
       id="path42"
       style="fill:#9c9c9c;fill-opacity:1;fill-rule:evenodd;stroke:none;stroke-width:0;stroke-linecap:square;stroke-miterlimit:3.9;stroke-dasharray:none;stroke-opacity:1;paint-order:stroke markers fill"
       d="m 75.639512,184.2957 a 39.191311,39.191311 0 0 0 -7.200249,0.9127 l -0.833217,0.18515 0.355471,2.91103 1.230611,-0.2725 a 37.511452,37.511452 0 0 1 16.540317,0.0734 l 19.267935,4.44469 v -2.46995 l -18.554365,-4.63685 a 39.191311,39.191311 0 0 0 -10.806503,-1.14764 z m -11.711325,1.91534 -13.43978,2.9879 0.08385,2.95556 13.71053,-3.03505 v -8.8e-4 z" />
    <path
       style="fill:#9c9c9c;fill-opacity:1;fill-rule:evenodd;stroke:none;stroke-width:0;stroke-linecap:square;stroke-miterlimit:3.9;stroke-dasharray:none;stroke-opacity:1;paint-order:stroke markers fill"
       d="m 89.035357,121.91477 10.621099,-2.36104 a 23.188485,23.188485 0.74945802 0 1 10.654184,0.13937 l 10.97785,2.74356 v 1.46131 l -11.39995,-2.6299 a 22.194556,22.194556 0.25322632 0 0 -9.78685,-0.0433 l -11.016454,2.43907 z"
       id="path44"
       inkscape:path-effect="#path-effect46"
       inkscape:original-d="M 89.035357,121.91477 105,118.36588 l 16.28849,4.07078 v 1.46131 L 105,120.14032 89.085236,123.66389 Z"
       transform="matrix(1.6901195,0,0,1.6901195,-99.992042,-11.485878)" />
    <path
       style="fill:#9c9c9c;fill-opacity:1;fill-rule:evenodd;stroke:none;stroke-width:0;stroke-linecap:square;stroke-miterlimit:3.9;stroke-dasharray:none;stroke-opacity:1;paint-order:stroke markers fill"
       d="m 89.035357,121.91477 10.621099,-2.36104 a 23.188485,23.188485 0.74945802 0 1 10.654184,0.13937 l 10.97785,2.74356 v 1.46131 l -11.39995,-2.6299 a 22.194556,22.194556 0.25322632 0 0 -9.78685,-0.0433 l -11.016454,2.43907 z"
       id="path47"
       inkscape:path-effect="#path-effect48"
       inkscape:original-d="M 89.035357,121.91477 105,118.36588 l 16.28849,4.07078 v 1.46131 L 105,120.14032 89.085236,123.66389 Z"
       transform="matrix(1.6901195,0,0,1.6901195,-36.130493,-94.097426)" />
    <path
       id="path48"
       style="fill:#9c9c9c;fill-opacity:1;fill-rule:evenodd;stroke:none;stroke-width:0;stroke-linecap:square;stroke-miterlimit:3.9;stroke-dasharray:none;stroke-opacity:1;paint-order:stroke markers fill"
       d="m 139.50119,113.31065 a 39.191311,39.191311 0 0 0 -7.20026,0.9127 l -6.50504,1.44633 0.52491,2.86822 6.73212,-1.49001 a 37.511452,37.511452 0 0 1 16.5412,0.0725 l 19.26706,4.44471 v -2.4691 l -18.5535,-4.6377 a 39.191311,39.191311 0 0 0 -10.80649,-1.14764 z m -18.60416,3.44815 -6.54696,1.45507 0.0838,2.95556 6.92776,-1.53366 z" />
    <path
       id="path50"
       style="fill:#9c9c9c;fill-opacity:1;fill-rule:evenodd;stroke:none;stroke-width:0;stroke-linecap:square;stroke-miterlimit:3.9;stroke-dasharray:none;stroke-opacity:1;paint-order:stroke markers fill"
       d="m 139.50119,119.57113 a 39.191311,39.191311 0 0 0 -7.20026,0.9127 l -17.95086,3.99053 0.0838,2.95556 18.61901,-4.12154 a 37.511452,37.511452 0 0 1 16.5412,0.0725 l 3.46562,0.79916 0.51354,-2.64463 -3.26561,-0.81662 a 39.191311,39.191311 0 0 0 -10.80649,-1.14764 z m 16.03637,2.45511 -0.60352,2.58611 v 8.8e-4 l 13.92714,3.21235 v -2.4691 z" />
    <path
       style="fill:#9c9c9c;fill-opacity:1;fill-rule:evenodd;stroke:none;stroke-width:0;stroke-linecap:square;stroke-miterlimit:3.9;stroke-dasharray:none;stroke-opacity:1;paint-order:stroke markers fill"
       d="m 89.035357,121.91477 10.621099,-2.36104 a 23.188485,23.188485 0.74945802 0 1 10.654184,0.13937 l 10.97785,2.74356 v 1.46131 l -11.39995,-2.6299 a 22.194556,22.194556 0.25322632 0 0 -9.78685,-0.0433 l -11.016454,2.43907 z"
       id="path52"
       inkscape:path-effect="#path-effect54"
       inkscape:original-d="M 89.035357,121.91477 105,118.36588 l 16.28849,4.07078 v 1.46131 L 105,120.14032 89.085236,123.66389 Z"
       transform="matrix(1.6901195,0,0,1.6901195,-36.130493,-75.315971)" />
    <path
       id="path54"
       style="fill:#9c9c9c;fill-opacity:1;fill-rule:evenodd;stroke:none;stroke-width:0;stroke-linecap:square;stroke-miterlimit:3.9;stroke-dasharray:none;stroke-opacity:1;paint-order:stroke markers fill"
       d="m 139.50119,132.09209 a 39.191311,39.191311 0 0 0 -7.20026,0.9127 l -3.43506,0.76336 0.77819,2.81581 3.40886,-0.75461 a 37.511452,37.511452 0 0 1 16.5412,0.0725 l 19.26706,4.44469 v -2.46908 l -18.5535,-4.63772 a 39.191311,39.191311 0 0 0 -10.80649,-1.14764 z m -13.34808,2.27957 -11.80304,2.62367 0.0838,2.95556 12.31485,-2.72586 z" />
    <path
       id="path56"
       style="fill:#9c9c9c;fill-opacity:1;fill-rule:evenodd;stroke:none;stroke-width:0;stroke-linecap:square;stroke-miterlimit:3.9;stroke-dasharray:none;stroke-opacity:1;paint-order:stroke markers fill"
       d="m 139.50119,140.14129 a 39.191311,39.191311 0 0 0 -7.20026,0.9127 l -17.95086,3.99054 0.0838,2.95556 18.61901,-4.12154 a 37.511452,37.511452 0 0 1 8.81253,-0.84807 l -0.0813,-2.85862 a 39.191311,39.191311 0 0 0 -2.28305,-0.0306 z m 4.41936,0.13183 -0.0152,2.84814 a 37.511452,37.511452 0 0 1 5.6893,0.82973 l 19.26706,4.44469 v -2.46908 l -18.55351,-4.63772 a 39.191311,39.191311 0 0 0 -6.38713,-1.01576 z" />
    <path
       style="fill:#9c9c9c;fill-opacity:1;fill-rule:evenodd;stroke:none;stroke-width:0;stroke-linecap:square;stroke-miterlimit:3.9;stroke-dasharray:none;stroke-opacity:1;paint-order:stroke markers fill"
       d="m 89.035357,121.91477 10.621099,-2.36104 a 23.188485,23.188485 0.74945802 0 1 10.654184,0.13937 l 10.97785,2.74356 v 1.46131 l -11.39995,-2.6299 a 22.194556,22.194556 0.25322632 0 0 -9.78685,-0.0433 l -11.016454,2.43907 z"
       id="path58"
       inkscape:path-effect="#path-effect60"
       inkscape:original-d="M 89.035357,121.91477 105,118.36588 l 16.28849,4.07078 v 1.46131 L 105,120.14032 89.085236,123.66389 Z"
       transform="matrix(1.6901195,0,0,1.6901195,-36.130493,-54.745795)" />
    <path
       id="path60"
       style="fill:#9c9c9c;fill-opacity:1;fill-rule:evenodd;stroke:none;stroke-width:0;stroke-linecap:square;stroke-miterlimit:3.9;stroke-dasharray:none;stroke-opacity:1;paint-order:stroke markers fill"
       d="m 139.50119,152.66227 a 39.191311,39.191311 0 0 0 -7.20026,0.9127 l -1.49263,0.33188 0.53539,2.87084 1.70923,-0.37818 a 37.511452,37.511452 0 0 1 16.5412,0.0725 l 19.26706,4.44471 v -2.4691 l -18.5535,-4.6377 a 39.191311,39.191311 0 0 0 -10.80649,-1.14765 z m -11.93056,1.96425 -13.22056,2.93897 0.0838,2.95556 13.48607,-2.98526 z" />
    <path
       style="fill:#9c9c9c;fill-opacity:1;fill-rule:evenodd;stroke:none;stroke-width:0;stroke-linecap:square;stroke-miterlimit:3.9;stroke-dasharray:none;stroke-opacity:1;paint-order:stroke markers fill"
       d="m 89.035357,121.91477 10.621099,-2.36104 a 23.188485,23.188485 0.74945802 0 1 10.654184,0.13937 l 10.97785,2.74356 v 1.46131 l -11.39995,-2.6299 a 22.194556,22.194556 0.25322632 0 0 -9.78685,-0.0433 l -11.016454,2.43907 z"
       id="path62"
       inkscape:path-effect="#path-effect64"
       inkscape:original-d="M 89.035357,121.91477 105,118.36588 l 16.28849,4.07078 v 1.46131 L 105,120.14032 89.085236,123.66389 Z"
       transform="matrix(1.6901195,0,0,1.6901195,-36.130493,-42.224819)" />
    <path
       style="fill:#9c9c9c;fill-opacity:1;fill-rule:evenodd;stroke:none;stroke-width:0;stroke-linecap:square;stroke-miterlimit:3.9;stroke-dasharray:none;stroke-opacity:1;paint-order:stroke markers fill"
       d="m 89.035357,121.91477 10.621099,-2.36104 a 23.188485,23.188485 0.74945802 0 1 10.654184,0.13937 l 10.97785,2.74356 v 1.46131 l -11.39995,-2.6299 a 22.194556,22.194556 0.25322632 0 0 -9.78685,-0.0433 l -11.016454,2.43907 z"
       id="path64"
       inkscape:path-effect="#path-effect66"
       inkscape:original-d="M 89.035357,121.91477 105,118.36588 l 16.28849,4.07078 v 1.46131 L 105,120.14032 89.085236,123.66389 Z"
       transform="matrix(1.6901195,0,0,1.6901195,-36.130493,-35.96433)" />
    <path
       style="fill:#9c9c9c;fill-opacity:1;fill-rule:evenodd;stroke:none;stroke-width:0;stroke-linecap:square;stroke-miterlimit:3.9;stroke-dasharray:none;stroke-opacity:1;paint-order:stroke markers fill"
       d="m 89.035357,121.91477 10.621099,-2.36104 a 23.188485,23.188485 0.74945802 0 1 10.654184,0.13937 l 10.97785,2.74356 v 1.46131 l -11.39995,-2.6299 a 22.194556,22.194556 0.25322632 0 0 -9.78685,-0.0433 l -11.016454,2.43907 z"
       id="path66"
       inkscape:path-effect="#path-effect68"
       inkscape:original-d="M 89.035357,121.91477 105,118.36588 l 16.28849,4.07078 v 1.46131 L 105,120.14032 89.085236,123.66389 Z"
       transform="matrix(1.6901195,0,0,1.6901195,-36.130493,-30.598197)" />
    <path
       style="fill:#9c9c9c;fill-opacity:1;fill-rule:evenodd;stroke:none;stroke-width:0;stroke-linecap:square;stroke-miterlimit:3.9;stroke-dasharray:none;stroke-opacity:1;paint-order:stroke markers fill"
       d="m 89.035357,121.91477 10.621099,-2.36104 a 23.188485,23.188485 0.74945802 0 1 10.654184,0.13937 l 10.97785,2.74356 v 1.46131 l -11.39995,-2.6299 a 22.194556,22.194556 0.25322632 0 0 -9.78685,-0.0433 l -11.016454,2.43907 z"
       id="path68"
       inkscape:path-effect="#path-effect70"
       inkscape:original-d="M 89.035357,121.91477 105,118.36588 l 16.28849,4.07078 v 1.46131 L 105,120.14032 89.085236,123.66389 Z"
       transform="matrix(1.6901195,0,0,1.6901195,-36.130493,-24.337709)" />
    <path
       style="fill:#9c9c9c;fill-opacity:1;fill-rule:evenodd;stroke:none;stroke-width:0;stroke-linecap:square;stroke-miterlimit:3.9;stroke-dasharray:none;stroke-opacity:1;paint-order:stroke markers fill"
       d="m 89.035357,121.91477 10.621099,-2.36104 a 23.188485,23.188485 0.74945802 0 1 10.654184,0.13937 l 10.97785,2.74356 v 1.46131 l -11.39995,-2.6299 a 22.194556,22.194556 0.25322632 0 0 -9.78685,-0.0433 l -11.016454,2.43907 z"
       id="path70"
       inkscape:path-effect="#path-effect72"
       inkscape:original-d="M 89.035357,121.91477 105,118.36588 l 16.28849,4.07078 v 1.46131 L 105,120.14032 89.085236,123.66389 Z"
       transform="matrix(1.6901195,0,0,1.6901195,-36.130493,-18.077221)" />
    <path
       style="fill:#9c9c9c;fill-opacity:1;fill-rule:evenodd;stroke:none;stroke-width:0;stroke-linecap:square;stroke-miterlimit:3.9;stroke-dasharray:none;stroke-opacity:1;paint-order:stroke markers fill"
       d="m 89.035357,121.91477 10.621099,-2.36104 a 23.188485,23.188485 0.74945802 0 1 10.654184,0.13937 l 10.97785,2.74356 v 1.46131 l -11.39995,-2.6299 a 22.194556,22.194556 0.25322632 0 0 -9.78685,-0.0433 l -11.016454,2.43907 z"
       id="path72"
       inkscape:path-effect="#path-effect74"
       inkscape:original-d="M 89.035357,121.91477 105,118.36588 l 16.28849,4.07078 v 1.46131 L 105,120.14032 89.085236,123.66389 Z"
       transform="matrix(1.6901195,0,0,1.6901195,-36.130493,-11.816732)" />
    <path
       style="fill:#000000;fill-opacity:1;fill-rule:evenodd;stroke:#878787;stroke-width:0.5;stroke-linecap:square;stroke-miterlimit:3.9;stroke-dasharray:none;stroke-opacity:1;paint-order:stroke markers fill"
       d="m 109.81803,103.93237 v 103.38772 0"
       id="path75"
       sodipodi:nodetypes="ccc" />
    <path
       style="fill:#000000;fill-opacity:1;fill-rule:evenodd;stroke:#aeaeae;stroke-width:0.499998;stroke-linecap:square;stroke-miterlimit:3.9;stroke-dasharray:none;stroke-opacity:1;paint-order:stroke markers fill"
       d="m 109.81803,211.92012 v -5.11459 0.51456"
       id="path76"
       sodipodi:nodetypes="ccc" />
  </g>
</svg>
