<?xml version="1.0" encoding="UTF-8" standalone="no"?>
<!-- Created with Inkscape (http://www.inkscape.org/) -->

<svg
   width="210mm"
   height="297mm"
   viewBox="0 0 210 297"
   version="1.1"
   id="svg1"
   inkscape:version="1.3.2 (091e20e, 2023-11-25, custom)"
   sodipodi:docname="Well Heart.svg"
   xmlns:inkscape="http://www.inkscape.org/namespaces/inkscape"
   xmlns:sodipodi="http://sodipodi.sourceforge.net/DTD/sodipodi-0.dtd"
   xmlns:xlink="http://www.w3.org/1999/xlink"
   xmlns="http://www.w3.org/2000/svg"
   xmlns:svg="http://www.w3.org/2000/svg">
  <sodipodi:namedview
     id="namedview1"
     pagecolor="#ffffff"
     bordercolor="#000000"
     borderopacity="0.25"
     inkscape:showpageshadow="2"
     inkscape:pageopacity="0.0"
     inkscape:pagecheckerboard="0"
     inkscape:deskcolor="#d1d1d1"
     inkscape:document-units="mm"
     showguides="true"
     inkscape:zoom="0.35355339"
     inkscape:cx="189.50462"
     inkscape:cy="554.37171"
     inkscape:window-width="1366"
     inkscape:window-height="768"
     inkscape:window-x="0"
     inkscape:window-y="0"
     inkscape:window-maximized="1"
     inkscape:current-layer="layer1" />
  <defs
     id="defs1">
    <linearGradient
       id="linearGradient47"
       inkscape:collect="always">
      <stop
         style="stop-color:#ff0000;stop-opacity:1;"
         offset="0"
         id="stop47" />
      <stop
         style="stop-color:#fffe22;stop-opacity:1;"
         offset="1"
         id="stop48" />
    </linearGradient>
    <inkscape:path-effect
       effect="fillet_chamfer"
       id="path-effect46"
       is_visible="true"
       lpeversion="1"
       nodesatellites_param="F,0,0,1,0,0,0,1 @ F,0,0,1,0,0,0,1 @ F,0,0,1,0,28.451195,0,1 @ F,0,0,1,0,0,0,1 @ F,0,0,1,0,28.049442,0,1 @ F,0,0,1,0,0,0,1 @ F,0,0,1,0,0,0,1"
       radius="0"
       unit="px"
       method="auto"
       mode="F"
       chamfer_steps="1"
       flexible="false"
       use_knot_distance="true"
       apply_no_radius="true"
       apply_with_radius="true"
       only_selected="false"
       hide_knots="false" />
    <inkscape:path-effect
       effect="fillet_chamfer"
       id="path-effect43"
       is_visible="true"
       lpeversion="1"
       nodesatellites_param="F,0,0,1,0,0,0,1 @ F,0,0,1,0,5.1025077,0,1 @ F,0,0,1,0,0,0,1 @ F,0,0,1,0,4.4204877,0,1"
       radius="0"
       unit="px"
       method="auto"
       mode="F"
       chamfer_steps="1"
       flexible="false"
       use_knot_distance="true"
       apply_no_radius="true"
       apply_with_radius="true"
       only_selected="false"
       hide_knots="false" />
    <inkscape:path-effect
       effect="fillet_chamfer"
       id="path-effect39"
       is_visible="true"
       lpeversion="1"
       nodesatellites_param="F,0,0,1,0,0,0,1 @ F,0,0,1,0,0,0,1 @ F,0,0,1,0,0,0,1 @ F,0,0,1,0,0,0,1"
       radius="0"
       unit="px"
       method="auto"
       mode="F"
       chamfer_steps="1"
       flexible="false"
       use_knot_distance="true"
       apply_no_radius="true"
       apply_with_radius="true"
       only_selected="false"
       hide_knots="false" />
    <inkscape:path-effect
       effect="fillet_chamfer"
       id="path-effect37"
       is_visible="true"
       lpeversion="1"
       nodesatellites_param="F,0,0,1,0,0,0,1 @ F,0,0,1,0,0,0,1 @ F,0,0,1,0,28.451195,0,1 @ F,0,0,1,0,0,0,1 @ F,0,0,1,0,28.049442,0,1 @ F,0,0,1,0,0,0,1 @ F,0,0,1,0,0,0,1"
       radius="0"
       unit="px"
       method="auto"
       mode="F"
       chamfer_steps="1"
       flexible="false"
       use_knot_distance="true"
       apply_no_radius="true"
       apply_with_radius="true"
       only_selected="false"
       hide_knots="false" />
    <inkscape:path-effect
       effect="fillet_chamfer"
       id="path-effect35"
       is_visible="true"
       lpeversion="1"
       nodesatellites_param="F,0,0,1,0,0,0,1 @ F,0,0,1,0,0,0,1 @ F,0,0,1,0,0,0,1 @ F,0,0,1,0,0,0,1"
       radius="0"
       unit="px"
       method="auto"
       mode="F"
       chamfer_steps="1"
       flexible="false"
       use_knot_distance="true"
       apply_no_radius="true"
       apply_with_radius="true"
       only_selected="false"
       hide_knots="false" />
    <inkscape:path-effect
       effect="fillet_chamfer"
       id="path-effect33"
       is_visible="true"
       lpeversion="1"
       nodesatellites_param="F,0,0,1,0,0,0,1 @ F,0,0,1,0,0,0,1 @ F,0,0,1,0,28.451195,0,1 @ F,0,0,1,0,0,0,1 @ F,0,0,1,0,28.049442,0,1 @ F,0,0,1,0,0,0,1 @ F,0,0,1,0,0,0,1"
       radius="0"
       unit="px"
       method="auto"
       mode="F"
       chamfer_steps="1"
       flexible="false"
       use_knot_distance="true"
       apply_no_radius="true"
       apply_with_radius="true"
       only_selected="false"
       hide_knots="false" />
    <inkscape:path-effect
       effect="fillet_chamfer"
       id="path-effect27"
       is_visible="true"
       lpeversion="1"
       nodesatellites_param="F,0,0,1,0,0,0,1 @ F,0,0,1,0,0,0,1 @ F,0,0,1,0,28.451195,0,1 @ F,0,0,1,0,0,0,1 @ F,0,0,1,0,28.049442,0,1 @ F,0,0,1,0,0,0,1 @ F,0,0,1,0,0,0,1"
       radius="0"
       unit="px"
       method="auto"
       mode="F"
       chamfer_steps="1"
       flexible="false"
       use_knot_distance="true"
       apply_no_radius="true"
       apply_with_radius="true"
       only_selected="false"
       hide_knots="false" />
    <inkscape:path-effect
       effect="fillet_chamfer"
       id="path-effect25"
       is_visible="true"
       lpeversion="1"
       nodesatellites_param="F,0,0,1,0,0,0,1 @ F,0,0,1,0,0,0,1 @ F,0,0,1,0,28.451195,0,1 @ F,0,0,1,0,0,0,1 @ F,0,0,1,0,28.049442,0,1 @ F,0,0,1,0,0,0,1 @ F,0,0,1,0,0,0,1"
       radius="0"
       unit="px"
       method="auto"
       mode="F"
       chamfer_steps="1"
       flexible="false"
       use_knot_distance="true"
       apply_no_radius="true"
       apply_with_radius="true"
       only_selected="false"
       hide_knots="false" />
    <inkscape:path-effect
       effect="fillet_chamfer"
       id="path-effect21"
       is_visible="true"
       lpeversion="1"
       nodesatellites_param="F,0,0,1,0,0,0,1 @ F,0,0,1,0,0,0,1 @ F,0,0,1,0,0,0,1 @ F,0,0,1,0,0,0,1"
       radius="0"
       unit="px"
       method="auto"
       mode="F"
       chamfer_steps="1"
       flexible="false"
       use_knot_distance="true"
       apply_no_radius="true"
       apply_with_radius="true"
       only_selected="false"
       hide_knots="false" />
    <inkscape:path-effect
       effect="fillet_chamfer"
       id="path-effect19"
       is_visible="true"
       lpeversion="1"
       nodesatellites_param="F,0,0,1,0,0,0,1 @ F,0,0,1,0,0,0,1 @ F,0,0,1,0,28.451195,0,1 @ F,0,0,1,0,0,0,1 @ F,0,0,1,0,28.049442,0,1 @ F,0,0,1,0,0,0,1 @ F,0,0,1,0,0,0,1"
       radius="0"
       unit="px"
       method="auto"
       mode="F"
       chamfer_steps="1"
       flexible="false"
       use_knot_distance="true"
       apply_no_radius="true"
       apply_with_radius="true"
       only_selected="false"
       hide_knots="false" />
    <inkscape:path-effect
       effect="fillet_chamfer"
       id="path-effect15"
       is_visible="true"
       lpeversion="1"
       nodesatellites_param="F,0,0,1,0,0,0,1 @ F,0,0,1,0,14.116258,0,1 @ F,0,0,1,0,0,0,1 @ F,0,0,1,0,12.887411,0,1"
       radius="0"
       unit="px"
       method="auto"
       mode="F"
       chamfer_steps="1"
       flexible="false"
       use_knot_distance="true"
       apply_no_radius="true"
       apply_with_radius="true"
       only_selected="false"
       hide_knots="false" />
    <inkscape:path-effect
       effect="fillet_chamfer"
       id="path-effect14"
       is_visible="true"
       lpeversion="1"
       nodesatellites_param="F,0,0,1,0,0,0,1 @ F,0,0,1,0,4.1374775,0,1 @ F,0,0,1,0,0,0,1 @ F,0,0,1,0,3.1782521,0,1"
       radius="0"
       unit="px"
       method="auto"
       mode="F"
       chamfer_steps="1"
       flexible="false"
       use_knot_distance="true"
       apply_no_radius="true"
       apply_with_radius="true"
       only_selected="false"
       hide_knots="false" />
    <inkscape:path-effect
       effect="fillet_chamfer"
       id="path-effect13"
       is_visible="true"
       lpeversion="1"
       nodesatellites_param="F,0,0,1,0,0,0,1 @ F,0,0,1,0,5.1501341,0,1 @ F,0,0,1,0,0,0,1 @ F,0,0,1,0,0,0,1 @ F,0,0,1,0,0,0,1 @ F,0,0,1,0,5.696637,0,1 @ F,0,0,1,0,0,0,1 @ F,0,0,1,0,0,0,1 @ F,0,0,1,0,0,0,1 @ F,0,0,1,0,6.3525977,0,1 @ F,0,0,1,0,0,0,1 @ F,0,0,1,0,0,0,1 @ F,0,0,1,0,0,0,1 @ F,0,0,1,0,5.2043257,0,1 @ F,0,0,1,0,0,0,1 @ F,0,0,1,0,0,0,1 @ F,0,0,1,0,0,0,1"
       radius="0"
       unit="px"
       method="auto"
       mode="F"
       chamfer_steps="1"
       flexible="false"
       use_knot_distance="true"
       apply_no_radius="true"
       apply_with_radius="true"
       only_selected="false"
       hide_knots="false" />
    <inkscape:path-effect
       effect="fillet_chamfer"
       id="path-effect11"
       is_visible="true"
       lpeversion="1"
       nodesatellites_param="F,0,0,1,0,0,0,1 @ F,0,0,1,0,5.1501341,0,1 @ F,0,0,1,0,0,0,1 @ F,0,0,1,0,0,0,1 @ F,0,0,1,0,0,0,1 @ F,0,0,1,0,5.696637,0,1 @ F,0,0,1,0,0,0,1 @ F,0,0,1,0,0,0,1 @ F,0,0,1,0,0,0,1 @ F,0,0,1,0,6.3525977,0,1 @ F,0,0,1,0,0,0,1 @ F,0,0,1,0,0,0,1 @ F,0,0,1,0,0,0,1 @ F,0,0,1,0,5.2043257,0,1 @ F,0,0,1,0,0,0,1 @ F,0,0,1,0,0,0,1 @ F,0,0,1,0,0,0,1"
       radius="0"
       unit="px"
       method="auto"
       mode="F"
       chamfer_steps="1"
       flexible="false"
       use_knot_distance="true"
       apply_no_radius="true"
       apply_with_radius="true"
       only_selected="false"
       hide_knots="false" />
    <inkscape:path-effect
       effect="fillet_chamfer"
       id="path-effect10"
       is_visible="true"
       lpeversion="1"
       nodesatellites_param="F,0,0,1,0,0,0,1 @ F,0,0,1,0,0,0,1 @ F,0,0,1,0,0,0,1 @ F,0,0,1,0,0,0,1"
       radius="0"
       unit="px"
       method="auto"
       mode="F"
       chamfer_steps="1"
       flexible="false"
       use_knot_distance="true"
       apply_no_radius="true"
       apply_with_radius="true"
       only_selected="false"
       hide_knots="false" />
    <inkscape:path-effect
       effect="fillet_chamfer"
       id="path-effect9"
       is_visible="true"
       lpeversion="1"
       nodesatellites_param="F,0,0,1,0,0,0,1 @ F,0,0,1,0,0,0,1 @ F,0,0,1,0,28.451195,0,1 @ F,0,0,1,0,0,0,1 @ F,0,0,1,0,28.049442,0,1 @ F,0,0,1,0,0,0,1 @ F,0,0,1,0,0,0,1"
       radius="0"
       unit="px"
       method="auto"
       mode="F"
       chamfer_steps="1"
       flexible="false"
       use_knot_distance="true"
       apply_no_radius="true"
       apply_with_radius="true"
       only_selected="false"
       hide_knots="false" />
    <inkscape:path-effect
       effect="fillet_chamfer"
       id="path-effect6"
       is_visible="true"
       lpeversion="1"
       nodesatellites_param="F,0,0,1,0,17.681981,0,1 @ F,0,0,1,0,7.9318605,0,1 @ F,0,0,1,0,20.42824,0,1 @ F,0,0,1,0,0,0,1 @ F,0,0,1,0,18.524455,0,1 @ F,0,0,1,0,24.384006,0,1"
       radius="0"
       unit="px"
       method="auto"
       mode="F"
       chamfer_steps="1"
       flexible="false"
       use_knot_distance="true"
       apply_no_radius="true"
       apply_with_radius="true"
       only_selected="false"
       hide_knots="false" />
    <inkscape:path-effect
       effect="fillet_chamfer"
       id="path-effect5"
       is_visible="true"
       lpeversion="1"
       nodesatellites_param="F,0,1,1,0,9.8573044,0,1 @ F,0,1,1,0,9.8573044,0,1 @ F,0,1,1,0,9.8573044,0,1 @ F,0,0,1,0,0,0,1 @ F,0,0,1,0,7.873913,0,1 @ F,0,0,1,0,9.8573044,0,1"
       radius="0"
       unit="px"
       method="auto"
       mode="F"
       chamfer_steps="1"
       flexible="false"
       use_knot_distance="true"
       apply_no_radius="true"
       apply_with_radius="true"
       only_selected="false"
       hide_knots="false" />
    <inkscape:path-effect
       effect="fillet_chamfer"
       id="path-effect4"
       is_visible="true"
       lpeversion="1"
       nodesatellites_param="F,0,1,1,0,10.842417,0,1 @ F,0,0,1,0,11.464177,0,1 @ F,0,0,1,0,21.867456,0,1 @ F,0,0,1,0,0,0,1 @ F,0,0,1,0,19.459308,0,1 @ F,0,0,1,0,10.842417,0,1"
       radius="0"
       unit="px"
       method="auto"
       mode="F"
       chamfer_steps="1"
       flexible="false"
       use_knot_distance="true"
       apply_no_radius="true"
       apply_with_radius="true"
       only_selected="false"
       hide_knots="false" />
    <inkscape:path-effect
       effect="fillet_chamfer"
       id="path-effect3"
       is_visible="true"
       lpeversion="1"
       nodesatellites_param="F,0,0,1,0,11.880603,0,1 @ F,0,0,1,0,0,0,1 @ F,0,0,1,0,11.823429,0,1 @ F,0,0,1,0,1.9241742,0,1"
       radius="0"
       unit="px"
       method="auto"
       mode="F"
       chamfer_steps="1"
       flexible="false"
       use_knot_distance="true"
       apply_no_radius="true"
       apply_with_radius="true"
       only_selected="false"
       hide_knots="false" />
    <inkscape:path-effect
       effect="fillet_chamfer"
       id="path-effect2"
       is_visible="true"
       lpeversion="1"
       nodesatellites_param="F,0,1,1,0,26.917658,0,1 @ F,0,0,1,0,29.758008,0,1 @ F,0,0,1,0,3.7091969,0,1 @ F,0,0,1,0,26.917658,0,1"
       radius="0"
       unit="px"
       method="auto"
       mode="F"
       chamfer_steps="1"
       flexible="false"
       use_knot_distance="true"
       apply_no_radius="true"
       apply_with_radius="true"
       only_selected="false"
       hide_knots="false" />
    <linearGradient
       inkscape:collect="always"
       xlink:href="#linearGradient47"
       id="linearGradient48"
       x1="107.0018"
       y1="72.708389"
       x2="107.21705"
       y2="156.30515"
       gradientUnits="userSpaceOnUse" />
  </defs>
  <g
     inkscape:label="Layer 1"
     inkscape:groupmode="layer"
     id="layer1">
    <ellipse
       style="fill:url(#linearGradient48);fill-opacity:1;fill-rule:evenodd;stroke:none;stroke-width:1.1;stroke-linecap:square;stroke-miterlimit:3.9;stroke-dasharray:none;stroke-opacity:1;paint-order:stroke markers fill"
       id="path46"
       ry="58.221695"
       rx="56.466187"
       cy="136.13161"
       cx="107.64443" />
    <path
       style="fill:#00ff00;fill-rule:evenodd;stroke-width:0.17643;stroke-linecap:square;stroke-miterlimit:3.9;paint-order:stroke markers fill"
       d="m 43.736108,148.5 -0.887223,-8.7182 -6.332329,-9.18767 A 42.201661,42.201661 89.41135 0 1 36.031827,83.415054 l 9.059935,-13.741098 8.63371,13.94204 A 44.149501,44.149501 90.660798 0 1 53.179385,130.9635 L 47.45539,139.74752 46.577122,148.5 Z"
       id="path16"
       inkscape:path-effect="#path-effect19"
       inkscape:original-d="M 43.736108,148.5 42.848885,139.7818 20.370775,107.16799 45.091762,69.673956 68.493041,107.46322 47.45539,139.74752 46.577122,148.5 Z"
       sodipodi:nodetypes="cccccccc"
       transform="matrix(0.72685912,-0.86988903,0.86988903,0.72685912,-63.112816,109.13697)" />
    <path
       style="fill:#00c800;fill-opacity:1;fill-rule:evenodd;stroke-width:0.164745;stroke-linecap:square;stroke-miterlimit:3.9;paint-order:stroke markers fill"
       d="m 42.848884,139.7818 4.606504,-0.0343 -0.878266,8.75248 h -2.841013 z"
       id="path17"
       inkscape:path-effect="#path-effect21"
       inkscape:original-d="m 42.848884,139.7818 4.606504,-0.0343 -0.878266,8.75248 h -2.841013 z"
       transform="matrix(0.74475513,-0.89130658,0.97369324,0.81359553,-79.337457,97.225615)" />
    <path
       id="path18"
       style="fill:#00c800;fill-opacity:1;fill-rule:evenodd;stroke-width:0.199999;stroke-linecap:square;stroke-miterlimit:3.9;paint-order:stroke markers fill"
       d="m 38.576233,131.7408 c 0.328099,3.41786 3.015986,6.13288 6.430359,6.49527 l 6.568087,0.69716 4.232293,3.53641 -14.275738,2.88573 c 2.766664,3.27565 7.236136,4.55868 11.318992,3.2493 l 7.521249,-2.32103 5.643375,4.71548 -15.454523,3.5802 0.05196,0.0823 c 2.070097,3.28324 5.965262,4.93075 9.762997,4.12937 l 11.947875,-2.52084 10.377664,8.67111 -20.225228,-2.2769 c 1.815966,3.11399 4.948051,5.23457 8.513744,5.76422 l 18.292905,4.83563 1.665226,-2.00914 1.731636,-2.12497 -8.060666,-17.01346 c -1.154925,-3.41479 -3.798396,-6.12014 -7.185566,-7.35377 l 5.806639,19.51786 -10.349244,-8.6902 0.357639,-12.20613 c 0.113666,-3.87973 -2.199881,-7.42009 -5.798755,-8.87372 l -0.09027,-0.0366 -0.776926,15.84528 -5.643376,-4.71548 0.947744,-7.81449 c 0.562914,-4.25058 -1.494034,-8.42089 -5.209238,-10.56136 l -0.303004,14.56187 -4.232297,-3.53643 -1.852994,-6.3401 c -0.963441,-3.29564 -4.112928,-5.45821 -7.534665,-5.17366 l 1.185188,5.23628 z"
       sodipodi:nodetypes="ccccccccccccccccccccccscccccccccccc" />
    <path
       style="fill:#00c800;fill-opacity:1;fill-rule:evenodd;stroke-width:0.164745;stroke-linecap:square;stroke-miterlimit:3.9;paint-order:stroke markers fill"
       d="m 42.848884,139.7818 4.606504,-0.0343 -0.878266,8.75248 h -2.841013 z"
       id="path10"
       transform="matrix(1.0157813,-0.56327257,0.61533787,1.1096736,-33.921946,25.819512)"
       inkscape:original-d="m 42.848884,139.7818 4.606504,-0.0343 -0.878266,8.75248 h -2.841013 z"
       inkscape:path-effect="#path-effect10" />
    <path
       style="fill:#00ff00;fill-rule:evenodd;stroke-width:0.17643;stroke-linecap:square;stroke-miterlimit:3.9;paint-order:stroke markers fill"
       d="m 43.736108,148.5 -0.887223,-8.7182 -6.332329,-9.18767 A 42.201661,42.201661 89.41135 0 1 36.031827,83.415054 l 9.059935,-13.741098 8.63371,13.94204 A 44.149501,44.149501 90.660798 0 1 53.179385,130.9635 L 47.45539,139.74752 46.577122,148.5 Z"
       id="path27"
       inkscape:path-effect="#path-effect33"
       inkscape:original-d="M 43.736108,148.5 42.848885,139.7818 20.370775,107.16799 45.091762,69.673956 68.493041,107.46322 47.45539,139.74752 46.577122,148.5 Z"
       sodipodi:nodetypes="cccccccc"
       transform="matrix(-0.72685912,-0.86988903,-0.86988903,0.72685912,278.55294,109.13697)" />
    <path
       style="fill:#00c800;fill-opacity:1;fill-rule:evenodd;stroke-width:0.164745;stroke-linecap:square;stroke-miterlimit:3.9;paint-order:stroke markers fill"
       d="m 42.848884,139.7818 4.606504,-0.0343 -0.878266,8.75248 h -2.841013 z"
       id="path28"
       inkscape:path-effect="#path-effect35"
       inkscape:original-d="m 42.848884,139.7818 4.606504,-0.0343 -0.878266,8.75248 h -2.841013 z"
       transform="matrix(-0.74475513,-0.89130658,-0.97369324,0.81359553,294.77757,97.225615)" />
    <path
       id="path29"
       style="fill:#00c800;fill-opacity:1;fill-rule:evenodd;stroke-width:0.199999;stroke-linecap:square;stroke-miterlimit:3.9;paint-order:stroke markers fill"
       d="m 176.8639,131.7408 c -0.32811,3.41786 -3.01601,6.13288 -6.43039,6.49527 l -6.56812,0.69716 -4.23232,3.53641 14.27581,2.88573 c -2.76667,3.27565 -7.23617,4.55868 -11.31905,3.2493 l -7.52129,-2.32103 -5.6434,4.71548 15.4546,3.5802 -0.052,0.0823 c -2.07011,3.28324 -5.9653,4.93075 -9.76306,4.12937 l -11.94794,-2.52084 -10.37772,8.67111 20.22534,-2.2769 c -1.81598,3.11399 -4.94808,5.23457 -8.51379,5.76422 l -18.293,4.83563 -1.66524,-2.00914 -1.73165,-2.12497 8.06072,-17.01346 c 1.15492,-3.41479 3.79841,-6.12014 7.18561,-7.35377 l -5.80668,19.51786 10.3493,-8.6902 -0.35764,-12.20613 c -0.11363,-3.87973 2.19989,-7.42009 5.79878,-8.87372 l 0.0903,-0.0366 0.77693,15.84528 5.64341,-4.71548 -0.94775,-7.81449 c -0.56291,-4.25058 1.49404,-8.42089 5.20927,-10.56136 l 0.30301,14.56187 4.23231,-3.53643 1.85301,-6.3401 c 0.96344,-3.29564 4.11296,-5.45821 7.53471,-5.17366 l -1.1852,5.23628 z"
       sodipodi:nodetypes="ccccccccccccccccccccccscccccccccccc" />
    <path
       style="fill:#00c800;fill-opacity:1;fill-rule:evenodd;stroke-width:0.164745;stroke-linecap:square;stroke-miterlimit:3.9;paint-order:stroke markers fill"
       d="m 42.848884,139.7818 4.606504,-0.0343 -0.878266,8.75248 h -2.841013 z"
       id="path31"
       transform="matrix(-1.0157813,-0.56327257,-0.61533787,1.1096736,249.36206,25.819512)"
       inkscape:original-d="m 42.848884,139.7818 4.606504,-0.0343 -0.878266,8.75248 h -2.841013 z"
       inkscape:path-effect="#path-effect39" />
    <path
       style="fill:#00ff00;fill-rule:evenodd;stroke:none;stroke-width:0.970367;stroke-linecap:square;stroke-miterlimit:3.9;stroke-dasharray:none;stroke-opacity:1;paint-order:stroke markers fill"
       d="m 43.736108,148.5 -0.887223,-8.7182 -6.332329,-9.18767 A 42.201661,42.201661 89.41135 0 1 36.031827,83.415054 l 9.059935,-13.741098 8.63371,13.94204 A 44.149501,44.149501 90.660798 0 1 53.179385,130.9635 L 47.45539,139.74752 46.577122,148.5 Z"
       id="path44"
       inkscape:path-effect="#path-effect46"
       inkscape:original-d="M 43.736108,148.5 42.848885,139.7818 20.370775,107.16799 45.091762,69.673956 68.493041,107.46322 47.45539,139.74752 46.577122,148.5 Z"
       sodipodi:nodetypes="cccccccc"
       transform="matrix(-1.1335197,0.01281792,0.01281792,1.1335197,156.93452,-19.724747)" />
    <path
       style="fill:#00ff00;fill-rule:evenodd;stroke:#ffffff;stroke-width:0.970367;stroke-linecap:square;stroke-miterlimit:3.9;stroke-dasharray:none;stroke-opacity:1;paint-order:stroke markers fill"
       d="m 43.736108,148.5 -0.887223,-8.7182 -6.332329,-9.18767 A 42.201661,42.201661 89.41135 0 1 36.031827,83.415054 l 9.059935,-13.741098 8.63371,13.94204 A 44.149501,44.149501 90.660798 0 1 53.179385,130.9635 L 47.45539,139.74752 46.577122,148.5 Z"
       id="path9"
       inkscape:path-effect="#path-effect9"
       inkscape:original-d="M 43.736108,148.5 42.848885,139.7818 20.370775,107.16799 45.091762,69.673956 68.493041,107.46322 47.45539,139.74752 46.577122,148.5 Z"
       sodipodi:nodetypes="cccccccc"
       transform="matrix(0.9913727,-0.54973748,0.54973748,0.9913727,-23.075895,42.774775)" />
    <path
       style="fill:#00ff00;fill-rule:evenodd;stroke:#ffffff;stroke-width:0.970367;stroke-linecap:square;stroke-miterlimit:3.9;stroke-dasharray:none;stroke-opacity:1;paint-order:stroke markers fill"
       d="m 43.736108,148.5 -0.887223,-8.7182 -6.332329,-9.18767 A 42.201661,42.201661 89.41135 0 1 36.031827,83.415054 l 9.059935,-13.741098 8.63371,13.94204 A 44.149501,44.149501 90.660798 0 1 53.179385,130.9635 L 47.45539,139.74752 46.577122,148.5 Z"
       id="path30"
       inkscape:path-effect="#path-effect37"
       inkscape:original-d="M 43.736108,148.5 42.848885,139.7818 20.370775,107.16799 45.091762,69.673956 68.493041,107.46322 47.45539,139.74752 46.577122,148.5 Z"
       sodipodi:nodetypes="cccccccc"
       transform="matrix(-0.9913727,-0.54973748,-0.54973748,0.9913727,238.51601,42.774775)" />
    <path
       id="path32"
       style="fill:#00c800;fill-opacity:1;fill-rule:evenodd;stroke-width:0.199999;stroke-linecap:square;stroke-miterlimit:3.9;paint-order:stroke markers fill"
       d="m 151.79139,100.48495 c 0.92485,3.30668 -0.60487,6.80754 -3.65961,8.37531 l -5.87629,3.01588 -2.67466,4.82337 14.35713,-2.44933 c -1.40129,4.05228 -5.10878,6.85891 -9.38925,7.10782 l -7.8525,0.5435 -3.56642,6.43153 15.70693,-2.22598 -0.0189,0.0955 c -0.74874,3.80847 -3.78917,6.74827 -7.6207,7.36844 l -12.05406,1.95133 -6.55842,11.82673 18.04809,-9.4082 c -0.57261,3.55905 -2.7308,6.66534 -5.86649,8.44363 l -15.32389,11.0993 -2.27708,-1.27458 -2.38075,-1.35873 1.39237,-18.77481 c -0.1524,-3.60159 1.33936,-7.07746 4.05495,-9.4482 l 1.61237,20.2994 6.52502,-11.83431 -4.72969,-11.2583 c -1.50331,-3.57845 -0.62007,-7.71446 2.21379,-10.36668 l 0.071,-0.0665 6.43147,14.50219 3.56642,-6.43153 -3.69854,-6.94879 c -2.05598,-3.76261 -1.63898,-8.3939 1.05605,-11.72875 l 5.5271,13.47557 2.67467,-4.8234 -0.55472,-6.582 c -0.28812,-3.42146 1.87119,-6.573215 5.1658,-7.540086 l 0.78018,5.311746 z"
       sodipodi:nodetypes="ccccccccccccccccccccccscccccccccccc" />
    <path
       id="path45"
       style="fill:#00c800;fill-opacity:1;fill-rule:evenodd;stroke-width:0.199999;stroke-linecap:square;stroke-miterlimit:3.9;paint-order:stroke markers fill"
       d="m 110.12619,73.337578 c 2.43985,2.415857 2.84277,6.215021 0.96393,9.088935 l -3.61423,5.528444 0.0624,5.514986 11.26442,-9.232562 c 0.78737,4.214812 -1.04569,8.488283 -4.64227,10.82262 l -6.55492,4.357814 0.0832,7.353735 12.54791,-9.706386 0.0309,0.09239 c 1.23382,3.680056 0.0464,7.739196 -2.97645,10.173996 l -9.50944,7.66022 0.1527,13.52269 11.02853,-17.1062 c 1.26347,3.37617 0.92501,7.14345 -0.91999,10.24038 l -7.82444,17.22782 -2.60946,0.0192 -2.74119,-0.003 -8.079984,-17.0044 c -1.914528,-3.05439 -2.338052,-6.81307 -1.15127,-10.21695 l 11.445444,16.84245 -0.18546,-13.51275 -9.680804,-7.44318 c -3.076998,-2.36581 -4.355979,-6.39705 -3.205681,-10.10407 l 0.02882,-0.09299 12.764725,9.42007 -0.0832,-7.353722 -6.65233,-4.208409 c -3.648427,-2.25237 -5.577627,-6.483284 -4.885759,-10.714822 l 11.470849,8.975403 -0.0624,-5.514986 -3.73888,-5.445289 c -1.94333,-2.830682 -1.62639,-6.63799 0.7582,-9.108408 l 3.30627,4.229848 z"
       sodipodi:nodetypes="ccccccccccccccccccccccscccccccccccc" />
    <path
       id="path11"
       style="fill:#00c800;fill-opacity:1;fill-rule:evenodd;stroke-width:0.199999;stroke-linecap:square;stroke-miterlimit:3.9;paint-order:stroke markers fill"
       d="m 63.648596,100.48495 c -0.924848,3.30668 0.604862,6.80754 3.659597,8.37531 l 5.876258,3.01588 2.674653,4.82337 -14.357053,-2.44933 c 1.401285,4.05228 5.10875,6.85891 9.389198,7.10782 l 7.852451,0.5435 3.566402,6.43153 -15.706852,-2.22598 0.01882,0.0955 c 0.74873,3.80847 3.789164,6.74827 7.620664,7.36844 l 12.05399,1.95133 6.558381,11.82673 -18.047988,-9.4082 c 0.572602,3.55905 2.730787,6.66534 5.866448,8.44363 l 15.323812,11.0993 2.277069,-1.27458 2.380744,-1.35873 -1.392378,-18.77481 c 0.152406,-3.60159 -1.339346,-7.07746 -4.05493,-9.4482 l -1.61235,20.2994 -6.524991,-11.83431 4.729666,-11.2583 c 1.503305,-3.57845 0.620066,-7.71446 -2.213786,-10.36668 l -0.07108,-0.0665 -6.43143,14.50219 -3.566402,-6.43153 3.698515,-6.94879 c 2.055974,-3.76261 1.638985,-8.3939 -1.056029,-11.72875 l -5.527082,13.47557 -2.674653,-4.8234 0.554722,-6.582 c 0.28812,-3.42146 -1.871172,-6.573215 -5.165777,-7.540086 l -0.78017,5.311726 z"
       sodipodi:nodetypes="ccccccccccccccccccccccscccccccccccc" />
    <path
       id="path5"
       style="fill:#ff0000;fill-rule:evenodd;stroke-width:0.199999;stroke-linecap:square;stroke-miterlimit:3.9;paint-order:stroke markers fill"
       d="m 87.62546,108.7961 a 26.136701,29.966166 0 0 0 -22.036247,15.14061 56.344671,64.600112 0 0 0 29.488661,56.79094 l 12.622876,7.84598 12.62287,-7.84598 a 56.344671,64.600112 0 0 0 29.48867,-56.79094 26.136701,29.966166 0 0 0 -22.03624,-15.14061 26.136701,29.966166 0 0 0 -19.97213,9.73647 53.715242,61.58543 0 0 1 -0.10324,-0.003 53.715242,61.58543 0 0 1 -0.10309,0.003 26.136701,29.966166 0 0 0 -19.972133,-9.73647 z" />
    <path
       style="fill:#ffffff;fill-opacity:1;fill-rule:evenodd;stroke-width:0.116217;stroke-linecap:square;stroke-miterlimit:3.9;paint-order:stroke markers fill"
       d="m 122.73017,108.41788 a 37.694218,37.694218 123.37215 0 1 -14.27592,21.67349 l -0.78472,0.59006 0.80673,-0.96474 a 120.37642,120.37642 123.79184 0 0 14.25391,-21.29881 z"
       id="path15"
       inkscape:path-effect="#path-effect15"
       inkscape:original-d="m 122.73017,108.41788 -2.99342,13.18975 -12.06722,9.0738 9.0738,-10.85114 z"
       transform="matrix(1.688737,0.33126815,-0.33126815,1.688737,-29.318422,-73.541115)" />
    <path
       style="fill:#ffffff;fill-opacity:1;fill-rule:evenodd;stroke:none;stroke-width:0.70081;stroke-linecap:square;stroke-miterlimit:3.9;stroke-dasharray:none;stroke-opacity:1;paint-order:stroke markers fill"
       d="m 104.60963,94.158593 -4.06352,-1.634576 a 11.557357,11.557357 178.09156 0 0 -9.330479,0.3109 l -4.663809,2.247511 5.097794,-1.403844 a 19.025309,19.025309 177.68382 0 1 8.604544,-0.348027 z"
       id="path43"
       inkscape:path-effect="#path-effect43"
       inkscape:original-d="m 104.60963,94.158593 -8.797392,-3.538802 -9.260416,4.462637 9.359635,-2.577481 z"
       transform="matrix(1.4768123,-0.48966363,0.49834753,1.5030028,-107.05329,21.376968)" />
    <text
       xml:space="preserve"
       style="font-style:normal;font-variant:normal;font-weight:normal;font-stretch:normal;font-size:11.2889px;font-family:Impact;-inkscape-font-specification:Impact;letter-spacing:1.32292px;fill:#ff1717;fill-opacity:1;fill-rule:evenodd;stroke:none;stroke-width:0.740522;stroke-linecap:square;stroke-miterlimit:3.9;stroke-dasharray:none;stroke-opacity:1;paint-order:stroke markers fill"
       id="text48"
       transform="matrix(0.76809551,-1.2714384,1.2714384,0.76809551,-102.39888,193.89029)"><textPath
         xlink:href="#ellipse50"
         id="textPath51"
         style="stroke-width:0.740522"><tspan
           id="tspan48"
           style="font-style:normal;font-variant:normal;font-weight:normal;font-stretch:normal;font-size:11.2889px;font-family:Impact;-inkscape-font-specification:Impact;letter-spacing:1.32292px;fill:#ff1717;fill-opacity:1;stroke-width:0.740522">Well Heart</tspan></textPath></text>
    <ellipse
       style="fill:none;fill-opacity:1;fill-rule:evenodd;stroke:none;stroke-width:1.1;stroke-linecap:square;stroke-miterlimit:3.9;stroke-dasharray:none;stroke-opacity:1;paint-order:stroke markers fill"
       id="ellipse50"
       ry="58.725632"
       rx="56.954929"
       cy="101.42226"
       cx="-107.66914"
       transform="scale(-1,1)" />
  </g>
</svg>
